<svg xmlns="http://www.w3.org/2000/svg" viewBox="0 -0.5 90 90" shape-rendering="crispEdges">
	<path stroke="#fff" d="M1 0h1M3 0h1M5 0h1M7 0h1M9 0h1M11 0h1M13 0h1M15 0h1M17 0h1M19 0h1M21 0h1M23 0h1M25 0h1M27 0h1M29 0h1M31 0h1M33 0h1M35 0h1M37 0h1M39 0h1M41 0h1M43 0h1M45 0h1M47 0h1M49 0h1M51 0h1M53 0h1M55 0h1M57 0h1M59 0h1M61 0h1M63 0h1M65 0h1M67 0h1M69 0h1M71 0h1M73 0h1M75 0h1M77 0h1M79 0h1M81 0h1M83 0h1M85 0h1M87 0h1M89 0h1M0 1h1M2 1h1M4 1h1M6 1h1M8 1h1M10 1h1M12 1h1M14 1h1M16 1h1M18 1h1M20 1h1M22 1h1M24 1h1M26 1h1M28 1h1M30 1h1M32 1h1M34 1h1M36 1h1M38 1h1M40 1h1M42 1h1M44 1h1M46 1h1M48 1h1M50 1h1M52 1h1M54 1h1M56 1h1M58 1h1M60 1h1M62 1h1M64 1h1M66 1h1M68 1h1M70 1h1M72 1h1M74 1h1M76 1h1M78 1h1M80 1h1M82 1h1M84 1h1M86 1h1M88 1h1M1 2h1M3 2h1M5 2h1M7 2h1M9 2h1M11 2h1M13 2h1M15 2h1M17 2h1M19 2h1M21 2h1M23 2h1M25 2h1M27 2h1M29 2h1M31 2h1M33 2h1M35 2h1M37 2h1M39 2h1M41 2h1M43 2h1M45 2h1M47 2h1M49 2h1M51 2h1M53 2h1M55 2h1M57 2h1M59 2h1M61 2h1M63 2h1M65 2h1M67 2h1M69 2h1M71 2h1M73 2h1M75 2h1M77 2h1M79 2h1M81 2h1M83 2h1M85 2h1M87 2h1M89 2h1M0 3h1M2 3h1M4 3h1M6 3h1M8 3h1M10 3h1M12 3h1M14 3h1M16 3h1M18 3h1M20 3h1M22 3h1M24 3h1M26 3h1M28 3h1M30 3h1M32 3h1M34 3h1M36 3h1M38 3h1M40 3h1M42 3h1M44 3h1M46 3h1M48 3h1M50 3h1M52 3h1M54 3h1M56 3h1M58 3h1M60 3h1M62 3h1M64 3h1M66 3h1M68 3h1M70 3h1M72 3h1M74 3h1M76 3h1M78 3h1M80 3h1M82 3h1M84 3h1M86 3h1M88 3h1M1 4h1M3 4h1M5 4h1M7 4h1M9 4h1M11 4h1M13 4h1M15 4h1M17 4h1M19 4h1M21 4h1M23 4h1M25 4h1M27 4h1M29 4h1M31 4h1M33 4h1M35 4h1M37 4h1M39 4h1M41 4h1M43 4h1M45 4h1M47 4h1M49 4h1M51 4h1M53 4h1M55 4h1M57 4h1M59 4h1M61 4h1M63 4h1M65 4h1M67 4h1M69 4h1M71 4h1M73 4h1M75 4h1M77 4h1M79 4h1M81 4h1M83 4h1M85 4h1M87 4h1M89 4h1M0 5h1M2 5h1M4 5h1M6 5h1M8 5h1M10 5h1M12 5h1M14 5h1M16 5h1M18 5h1M20 5h1M22 5h1M24 5h1M26 5h1M28 5h1M30 5h1M32 5h1M34 5h1M36 5h1M38 5h1M40 5h1M42 5h1M44 5h1M46 5h1M48 5h1M50 5h1M52 5h1M54 5h1M56 5h1M58 5h1M60 5h1M62 5h1M64 5h1M66 5h1M68 5h1M70 5h1M72 5h1M74 5h1M76 5h1M78 5h1M80 5h1M82 5h1M84 5h1M86 5h1M88 5h1M1 6h1M3 6h1M5 6h1M7 6h1M9 6h1M11 6h1M13 6h1M15 6h1M17 6h1M19 6h1M21 6h1M23 6h1M25 6h1M27 6h1M29 6h1M31 6h1M33 6h1M35 6h1M37 6h1M39 6h1M41 6h1M43 6h1M45 6h1M47 6h1M49 6h1M51 6h1M53 6h1M55 6h1M57 6h1M59 6h1M61 6h1M63 6h1M65 6h1M67 6h1M69 6h1M71 6h1M73 6h1M75 6h1M77 6h1M79 6h1M81 6h1M83 6h1M85 6h1M87 6h1M89 6h1M0 7h1M2 7h1M4 7h1M6 7h1M8 7h1M10 7h1M12 7h1M14 7h1M16 7h1M18 7h1M20 7h1M22 7h1M24 7h1M26 7h1M28 7h1M30 7h1M32 7h1M34 7h1M36 7h1M38 7h1M40 7h1M42 7h1M44 7h1M46 7h1M48 7h1M50 7h1M52 7h1M54 7h1M56 7h1M58 7h1M60 7h1M62 7h1M64 7h1M66 7h1M68 7h1M70 7h1M72 7h1M74 7h1M76 7h1M78 7h1M80 7h1M82 7h1M84 7h1M86 7h1M88 7h1M1 8h1M3 8h1M5 8h1M7 8h1M9 8h1M11 8h1M13 8h1M15 8h1M17 8h1M19 8h1M21 8h1M23 8h1M25 8h1M27 8h1M29 8h1M31 8h1M33 8h1M35 8h1M37 8h1M39 8h1M41 8h1M43 8h1M45 8h1M47 8h1M49 8h1M51 8h1M53 8h1M55 8h1M57 8h1M59 8h1M61 8h1M63 8h1M65 8h1M67 8h1M69 8h1M71 8h1M73 8h1M75 8h1M77 8h1M79 8h1M81 8h1M83 8h1M85 8h1M87 8h1M89 8h1M0 9h1M2 9h1M4 9h1M6 9h1M8 9h1M10 9h1M12 9h1M14 9h1M16 9h1M18 9h1M20 9h1M22 9h1M24 9h1M26 9h1M28 9h1M30 9h1M32 9h1M34 9h1M36 9h1M38 9h1M40 9h1M42 9h1M44 9h1M46 9h1M48 9h1M50 9h1M52 9h1M54 9h1M56 9h1M58 9h1M60 9h1M62 9h1M64 9h1M66 9h1M68 9h1M70 9h1M72 9h1M74 9h1M76 9h1M78 9h1M80 9h1M82 9h1M84 9h1M86 9h1M88 9h1M1 10h1M3 10h1M5 10h1M7 10h1M9 10h1M11 10h1M13 10h1M15 10h1M17 10h1M19 10h1M21 10h1M23 10h1M25 10h1M27 10h1M29 10h1M31 10h1M33 10h1M35 10h1M37 10h1M39 10h1M41 10h1M43 10h1M45 10h1M47 10h1M49 10h1M51 10h1M53 10h1M55 10h1M57 10h1M59 10h1M61 10h1M63 10h1M65 10h1M67 10h1M69 10h1M71 10h1M73 10h1M75 10h1M77 10h1M79 10h1M81 10h1M83 10h1M85 10h1M87 10h1M89 10h1M0 11h1M2 11h1M4 11h1M6 11h1M8 11h1M10 11h1M12 11h1M14 11h1M16 11h1M18 11h1M20 11h1M22 11h1M24 11h1M26 11h1M28 11h1M30 11h1M32 11h1M34 11h1M36 11h1M38 11h1M40 11h1M42 11h1M44 11h1M46 11h1M48 11h1M50 11h1M52 11h1M54 11h1M56 11h1M58 11h1M60 11h1M62 11h1M64 11h1M66 11h1M68 11h1M70 11h1M72 11h1M74 11h1M76 11h1M78 11h1M80 11h1M82 11h1M84 11h1M86 11h1M88 11h1M1 12h1M3 12h1M5 12h1M7 12h1M9 12h1M11 12h1M13 12h1M15 12h1M17 12h1M19 12h1M21 12h1M23 12h1M25 12h1M27 12h1M29 12h1M31 12h1M33 12h1M35 12h1M37 12h1M39 12h1M41 12h1M43 12h1M45 12h1M47 12h1M49 12h1M51 12h1M53 12h1M55 12h1M57 12h1M59 12h1M61 12h1M63 12h1M65 12h1M67 12h1M69 12h1M71 12h1M73 12h1M75 12h1M77 12h1M79 12h1M81 12h1M83 12h1M85 12h1M87 12h1M89 12h1M0 13h1M2 13h1M4 13h1M6 13h1M8 13h1M10 13h1M12 13h1M14 13h1M16 13h1M18 13h1M20 13h1M22 13h1M24 13h1M26 13h1M28 13h1M30 13h1M32 13h1M34 13h1M36 13h1M38 13h1M40 13h1M42 13h1M44 13h1M46 13h1M48 13h1M50 13h1M52 13h1M54 13h1M56 13h1M58 13h1M60 13h1M62 13h1M64 13h1M66 13h1M68 13h1M70 13h1M72 13h1M74 13h1M76 13h1M78 13h1M80 13h1M82 13h1M84 13h1M86 13h1M88 13h1M1 14h1M3 14h1M5 14h1M7 14h1M9 14h1M11 14h1M13 14h1M15 14h1M17 14h1M19 14h1M21 14h1M23 14h1M25 14h1M27 14h1M29 14h1M31 14h1M33 14h1M35 14h1M37 14h1M39 14h1M41 14h1M43 14h1M45 14h1M47 14h1M49 14h1M51 14h1M53 14h1M55 14h1M57 14h1M59 14h1M61 14h1M63 14h1M65 14h1M67 14h1M69 14h1M71 14h1M73 14h1M75 14h1M77 14h1M79 14h1M81 14h1M83 14h1M85 14h1M87 14h1M89 14h1M0 15h1M2 15h1M4 15h1M6 15h1M8 15h1M10 15h1M12 15h1M14 15h1M16 15h1M18 15h1M20 15h1M22 15h1M24 15h1M26 15h1M28 15h1M30 15h1M32 15h1M34 15h1M36 15h1M38 15h1M40 15h1M42 15h1M44 15h1M46 15h1M48 15h1M50 15h1M52 15h1M54 15h1M56 15h1M58 15h1M60 15h1M62 15h1M64 15h1M66 15h1M68 15h1M70 15h1M72 15h1M74 15h1M76 15h1M78 15h1M80 15h1M82 15h1M84 15h1M86 15h1M88 15h1M1 16h1M3 16h1M5 16h1M7 16h1M9 16h1M11 16h1M13 16h1M15 16h1M17 16h1M19 16h1M21 16h1M23 16h1M25 16h1M27 16h1M29 16h1M31 16h1M33 16h1M35 16h1M37 16h1M39 16h1M41 16h1M43 16h1M45 16h1M47 16h1M49 16h1M51 16h1M53 16h1M55 16h1M57 16h1M59 16h1M61 16h1M63 16h1M65 16h1M67 16h1M69 16h1M71 16h1M73 16h1M75 16h1M77 16h1M79 16h1M81 16h1M83 16h1M85 16h1M87 16h1M89 16h1M0 17h1M2 17h1M4 17h1M6 17h1M8 17h1M10 17h1M12 17h1M14 17h1M16 17h1M18 17h1M20 17h1M22 17h1M24 17h1M26 17h1M28 17h1M30 17h1M32 17h1M34 17h1M36 17h1M38 17h1M40 17h1M42 17h1M44 17h1M46 17h1M48 17h1M50 17h1M52 17h1M54 17h1M56 17h1M58 17h1M60 17h1M62 17h1M64 17h1M66 17h1M68 17h1M70 17h1M72 17h1M74 17h1M76 17h1M78 17h1M80 17h1M82 17h1M84 17h1M86 17h1M88 17h1M1 18h1M3 18h1M5 18h1M7 18h1M9 18h1M11 18h1M13 18h1M15 18h1M17 18h1M19 18h1M21 18h1M23 18h1M25 18h1M27 18h1M29 18h1M31 18h1M33 18h1M35 18h1M37 18h1M39 18h1M41 18h1M43 18h1M45 18h1M47 18h1M49 18h1M51 18h1M53 18h1M55 18h1M57 18h1M59 18h1M61 18h1M63 18h1M65 18h1M67 18h1M69 18h1M71 18h1M73 18h1M75 18h1M77 18h1M79 18h1M81 18h1M83 18h1M85 18h1M87 18h1M89 18h1M0 19h1M2 19h1M4 19h1M6 19h1M8 19h1M10 19h1M12 19h1M14 19h1M16 19h1M18 19h1M20 19h1M22 19h1M24 19h1M26 19h1M28 19h1M30 19h1M32 19h1M34 19h1M36 19h1M38 19h1M40 19h1M42 19h1M44 19h1M46 19h1M48 19h1M50 19h1M52 19h1M54 19h1M56 19h1M58 19h1M60 19h1M62 19h1M64 19h1M66 19h1M68 19h1M70 19h1M72 19h1M74 19h1M76 19h1M78 19h1M80 19h1M82 19h1M84 19h1M86 19h1M88 19h1M1 20h1M3 20h1M5 20h1M7 20h1M9 20h1M11 20h1M13 20h1M15 20h1M17 20h1M19 20h1M21 20h1M23 20h1M25 20h1M27 20h1M29 20h1M31 20h1M33 20h1M35 20h1M37 20h1M39 20h1M41 20h1M43 20h1M45 20h1M47 20h1M49 20h1M51 20h1M53 20h1M55 20h1M57 20h1M59 20h1M61 20h1M63 20h1M65 20h1M67 20h1M69 20h1M71 20h1M73 20h1M75 20h1M77 20h1M79 20h1M81 20h1M83 20h1M85 20h1M87 20h1M89 20h1M0 21h1M2 21h1M4 21h1M6 21h1M8 21h1M10 21h1M12 21h1M14 21h1M16 21h1M18 21h1M20 21h1M22 21h1M24 21h1M26 21h1M28 21h1M30 21h1M32 21h1M34 21h1M36 21h1M38 21h1M40 21h1M42 21h1M44 21h1M46 21h1M48 21h1M50 21h1M52 21h1M54 21h1M56 21h1M58 21h1M60 21h1M62 21h1M64 21h1M66 21h1M68 21h1M70 21h1M72 21h1M74 21h1M76 21h1M78 21h1M80 21h1M82 21h1M84 21h1M86 21h1M88 21h1M1 22h1M3 22h1M5 22h1M7 22h1M9 22h1M11 22h1M13 22h1M15 22h1M17 22h1M19 22h1M21 22h1M23 22h1M25 22h1M27 22h1M29 22h1M31 22h1M33 22h1M35 22h1M37 22h1M39 22h1M41 22h1M43 22h1M45 22h1M47 22h1M49 22h1M51 22h1M53 22h1M55 22h1M57 22h1M59 22h1M61 22h1M63 22h1M65 22h1M67 22h1M69 22h1M71 22h1M73 22h1M75 22h1M77 22h1M79 22h1M81 22h1M83 22h1M85 22h1M87 22h1M89 22h1M0 23h1M2 23h1M4 23h1M6 23h1M8 23h1M10 23h1M12 23h1M14 23h1M16 23h1M18 23h1M20 23h1M22 23h1M24 23h1M26 23h1M28 23h1M30 23h1M32 23h1M34 23h1M36 23h1M38 23h1M40 23h1M42 23h1M44 23h1M46 23h1M48 23h1M50 23h1M52 23h1M54 23h1M56 23h1M58 23h1M60 23h1M62 23h1M64 23h1M66 23h1M68 23h1M70 23h1M72 23h1M74 23h1M76 23h1M78 23h1M80 23h1M82 23h1M84 23h1M86 23h1M88 23h1M1 24h1M3 24h1M5 24h1M7 24h1M9 24h1M11 24h1M13 24h1M15 24h1M17 24h1M19 24h1M21 24h1M23 24h1M25 24h1M27 24h1M29 24h1M31 24h1M33 24h1M35 24h1M37 24h1M39 24h1M41 24h1M43 24h1M45 24h1M47 24h1M49 24h1M51 24h1M53 24h1M55 24h1M57 24h1M59 24h1M61 24h1M63 24h1M65 24h1M67 24h1M69 24h1M71 24h1M73 24h1M75 24h1M77 24h1M79 24h1M81 24h1M83 24h1M85 24h1M87 24h1M89 24h1M0 25h1M2 25h1M4 25h1M6 25h1M8 25h1M10 25h1M12 25h1M14 25h1M16 25h1M18 25h1M20 25h1M22 25h1M24 25h1M26 25h1M28 25h1M30 25h1M32 25h1M34 25h1M36 25h1M38 25h1M40 25h1M42 25h1M44 25h1M46 25h1M48 25h1M50 25h1M52 25h1M54 25h1M56 25h1M58 25h1M60 25h1M62 25h1M64 25h1M66 25h1M68 25h1M70 25h1M72 25h1M74 25h1M76 25h1M78 25h1M80 25h1M82 25h1M84 25h1M86 25h1M88 25h1M1 26h1M3 26h1M5 26h1M7 26h1M9 26h1M11 26h1M13 26h1M15 26h1M17 26h1M19 26h1M21 26h1M23 26h1M25 26h1M27 26h1M29 26h1M31 26h1M33 26h1M35 26h1M37 26h1M39 26h1M41 26h1M43 26h1M45 26h1M47 26h1M49 26h1M51 26h1M53 26h1M55 26h1M57 26h1M59 26h1M61 26h1M63 26h1M65 26h1M67 26h1M69 26h1M71 26h1M73 26h1M75 26h1M77 26h1M79 26h1M81 26h1M83 26h1M85 26h1M87 26h1M89 26h1M0 27h1M2 27h1M4 27h1M6 27h1M8 27h1M10 27h1M12 27h1M14 27h1M16 27h1M18 27h1M20 27h1M22 27h1M24 27h1M26 27h1M28 27h1M30 27h1M32 27h1M34 27h1M36 27h1M38 27h1M40 27h1M42 27h1M44 27h1M46 27h1M48 27h1M50 27h1M52 27h1M54 27h1M56 27h1M58 27h1M60 27h1M62 27h1M64 27h1M66 27h1M68 27h1M70 27h1M72 27h1M74 27h1M76 27h1M78 27h1M80 27h1M82 27h1M84 27h1M86 27h1M88 27h1M1 28h1M3 28h1M5 28h1M7 28h1M9 28h1M11 28h1M13 28h1M15 28h1M17 28h1M19 28h1M21 28h1M23 28h1M25 28h1M27 28h1M29 28h1M31 28h1M33 28h1M35 28h1M37 28h1M39 28h1M41 28h1M43 28h1M45 28h1M47 28h1M49 28h1M51 28h1M53 28h1M55 28h1M57 28h1M59 28h1M61 28h1M63 28h1M65 28h1M67 28h1M69 28h1M71 28h1M73 28h1M75 28h1M77 28h1M79 28h1M81 28h1M83 28h1M85 28h1M87 28h1M89 28h1M0 29h1M2 29h1M4 29h1M6 29h1M8 29h1M10 29h1M12 29h1M14 29h1M16 29h1M18 29h1M20 29h1M22 29h1M24 29h1M26 29h1M28 29h1M30 29h1M32 29h1M34 29h1M36 29h1M38 29h1M40 29h1M42 29h1M44 29h1M46 29h1M48 29h1M50 29h1M52 29h1M54 29h1M56 29h1M58 29h1M60 29h1M62 29h1M64 29h1M66 29h1M68 29h1M70 29h1M72 29h1M74 29h1M76 29h1M78 29h1M80 29h1M82 29h1M84 29h1M86 29h1M88 29h1M1 30h1M3 30h1M5 30h1M7 30h1M9 30h1M11 30h1M13 30h1M15 30h1M17 30h1M19 30h1M21 30h1M23 30h1M25 30h1M27 30h1M29 30h1M31 30h1M33 30h1M35 30h1M37 30h1M39 30h1M41 30h1M43 30h1M45 30h1M47 30h1M49 30h1M51 30h1M53 30h1M55 30h1M57 30h1M59 30h1M61 30h1M63 30h1M65 30h1M67 30h1M69 30h1M71 30h1M73 30h1M75 30h1M77 30h1M79 30h1M81 30h1M83 30h1M85 30h1M87 30h1M89 30h1M0 31h1M2 31h1M4 31h1M6 31h1M8 31h1M10 31h1M12 31h1M14 31h1M16 31h1M18 31h1M20 31h1M22 31h1M24 31h1M26 31h1M28 31h1M30 31h1M32 31h1M34 31h1M36 31h1M38 31h1M40 31h1M42 31h1M44 31h1M46 31h1M48 31h1M50 31h1M52 31h1M54 31h1M56 31h1M58 31h1M60 31h1M62 31h1M64 31h1M66 31h1M68 31h1M70 31h1M72 31h1M74 31h1M76 31h1M78 31h1M80 31h1M82 31h1M84 31h1M86 31h1M88 31h1M1 32h1M3 32h1M5 32h1M7 32h1M9 32h1M11 32h1M13 32h1M15 32h1M17 32h1M19 32h1M21 32h1M23 32h1M25 32h1M27 32h1M29 32h1M31 32h1M33 32h1M35 32h1M37 32h1M39 32h1M41 32h1M43 32h1M45 32h1M47 32h1M49 32h1M51 32h1M53 32h1M55 32h1M57 32h1M59 32h1M61 32h1M63 32h1M65 32h1M67 32h1M69 32h1M71 32h1M73 32h1M75 32h1M77 32h1M79 32h1M81 32h1M83 32h1M85 32h1M87 32h1M89 32h1M0 33h1M2 33h1M4 33h1M6 33h1M8 33h1M10 33h1M12 33h1M14 33h1M16 33h1M18 33h1M20 33h1M22 33h1M24 33h1M26 33h1M28 33h1M30 33h1M32 33h1M34 33h1M36 33h1M38 33h1M40 33h1M42 33h1M44 33h1M46 33h1M48 33h1M50 33h1M52 33h1M54 33h1M56 33h1M58 33h1M60 33h1M62 33h1M64 33h1M66 33h1M68 33h1M70 33h1M72 33h1M74 33h1M76 33h1M78 33h1M80 33h1M82 33h1M84 33h1M86 33h1M88 33h1M1 34h1M3 34h1M5 34h1M7 34h1M9 34h1M11 34h1M13 34h1M15 34h1M17 34h1M19 34h1M21 34h1M23 34h1M25 34h1M27 34h1M29 34h1M31 34h1M33 34h1M35 34h1M37 34h1M39 34h1M41 34h1M43 34h1M45 34h1M47 34h1M49 34h1M51 34h1M53 34h1M55 34h1M57 34h1M59 34h1M61 34h1M63 34h1M65 34h1M67 34h1M69 34h1M71 34h1M73 34h1M75 34h1M77 34h1M79 34h1M81 34h1M83 34h1M85 34h1M87 34h1M89 34h1M0 35h1M2 35h1M4 35h1M6 35h1M8 35h1M10 35h1M12 35h1M14 35h1M16 35h1M18 35h1M20 35h1M22 35h1M24 35h1M26 35h1M28 35h1M30 35h1M32 35h1M34 35h1M36 35h1M38 35h1M40 35h1M42 35h1M44 35h1M46 35h1M48 35h1M50 35h1M52 35h1M54 35h1M56 35h1M58 35h1M60 35h1M62 35h1M64 35h1M66 35h1M68 35h1M70 35h1M72 35h1M74 35h1M76 35h1M78 35h1M80 35h1M82 35h1M84 35h1M86 35h1M88 35h1M1 36h1M3 36h1M5 36h1M7 36h1M9 36h1M11 36h1M13 36h1M15 36h1M17 36h1M19 36h1M21 36h1M23 36h1M25 36h1M27 36h1M29 36h1M31 36h1M33 36h1M35 36h1M37 36h1M39 36h1M41 36h1M43 36h1M45 36h1M47 36h1M49 36h1M51 36h1M53 36h1M55 36h1M57 36h1M59 36h1M61 36h1M63 36h1M65 36h1M67 36h1M69 36h1M71 36h1M73 36h1M75 36h1M77 36h1M79 36h1M81 36h1M83 36h1M85 36h1M87 36h1M89 36h1M0 37h1M2 37h1M4 37h1M6 37h1M8 37h1M10 37h1M12 37h1M14 37h1M16 37h1M18 37h1M20 37h1M22 37h1M24 37h1M26 37h1M28 37h1M30 37h1M32 37h1M34 37h1M36 37h1M38 37h1M40 37h1M42 37h1M44 37h1M46 37h1M48 37h1M50 37h1M52 37h1M54 37h1M56 37h1M58 37h1M60 37h1M62 37h1M64 37h1M66 37h1M68 37h1M70 37h1M72 37h1M74 37h1M76 37h1M78 37h1M80 37h1M82 37h1M84 37h1M86 37h1M88 37h1M1 38h1M3 38h1M5 38h1M7 38h1M9 38h1M11 38h1M13 38h1M15 38h1M17 38h1M19 38h1M21 38h1M23 38h1M25 38h1M27 38h1M29 38h1M31 38h1M33 38h1M35 38h1M37 38h1M39 38h1M41 38h1M43 38h1M45 38h1M47 38h1M49 38h1M51 38h1M53 38h1M55 38h1M57 38h1M59 38h1M61 38h1M63 38h1M65 38h1M67 38h1M69 38h1M71 38h1M73 38h1M75 38h1M77 38h1M79 38h1M81 38h1M83 38h1M85 38h1M87 38h1M89 38h1M0 39h1M2 39h1M4 39h1M6 39h1M8 39h1M10 39h1M12 39h1M14 39h1M16 39h1M18 39h1M20 39h1M22 39h1M24 39h1M26 39h1M28 39h1M30 39h1M32 39h1M34 39h1M36 39h1M38 39h1M40 39h1M42 39h1M44 39h1M46 39h1M48 39h1M50 39h1M52 39h1M54 39h1M56 39h1M58 39h1M60 39h1M62 39h1M64 39h1M66 39h1M68 39h1M70 39h1M72 39h1M74 39h1M76 39h1M78 39h1M80 39h1M82 39h1M84 39h1M86 39h1M88 39h1M1 40h1M3 40h1M5 40h1M7 40h1M9 40h1M11 40h1M13 40h1M15 40h1M17 40h1M19 40h1M21 40h1M23 40h1M25 40h1M27 40h1M29 40h1M31 40h1M33 40h1M35 40h1M37 40h1M39 40h1M41 40h1M43 40h1M45 40h1M47 40h1M49 40h1M51 40h1M53 40h1M55 40h1M57 40h1M59 40h1M61 40h1M63 40h1M65 40h1M67 40h1M69 40h1M71 40h1M73 40h1M75 40h1M77 40h1M79 40h1M81 40h1M83 40h1M85 40h1M87 40h1M89 40h1M0 41h1M2 41h1M4 41h1M6 41h1M8 41h1M10 41h1M12 41h1M14 41h1M16 41h1M18 41h1M20 41h1M22 41h1M24 41h1M26 41h1M28 41h1M30 41h1M32 41h1M34 41h1M36 41h1M38 41h1M40 41h1M42 41h1M44 41h1M46 41h1M48 41h1M50 41h1M52 41h1M54 41h1M56 41h1M58 41h1M60 41h1M62 41h1M64 41h1M66 41h1M68 41h1M70 41h1M72 41h1M74 41h1M76 41h1M78 41h1M80 41h1M82 41h1M84 41h1M86 41h1M88 41h1M1 42h1M3 42h1M5 42h1M7 42h1M9 42h1M11 42h1M13 42h1M15 42h1M17 42h1M19 42h1M21 42h1M23 42h1M25 42h1M27 42h1M29 42h1M31 42h1M33 42h1M35 42h1M37 42h1M39 42h1M41 42h1M43 42h1M45 42h1M47 42h1M49 42h1M51 42h1M53 42h1M55 42h1M57 42h1M59 42h1M61 42h1M63 42h1M65 42h1M67 42h1M69 42h1M71 42h1M73 42h1M75 42h1M77 42h1M79 42h1M81 42h1M83 42h1M85 42h1M87 42h1M89 42h1M0 43h1M2 43h1M4 43h1M6 43h1M8 43h1M10 43h1M12 43h1M14 43h1M16 43h1M18 43h1M20 43h1M22 43h1M24 43h1M26 43h1M28 43h1M30 43h1M32 43h1M34 43h1M36 43h1M38 43h1M40 43h1M42 43h1M44 43h1M46 43h1M48 43h1M50 43h1M52 43h1M54 43h1M56 43h1M58 43h1M60 43h1M62 43h1M64 43h1M66 43h1M68 43h1M70 43h1M72 43h1M74 43h1M76 43h1M78 43h1M80 43h1M82 43h1M84 43h1M86 43h1M88 43h1M1 44h1M3 44h1M5 44h1M7 44h1M9 44h1M11 44h1M13 44h1M15 44h1M17 44h1M19 44h1M21 44h1M23 44h1M25 44h1M27 44h1M29 44h1M31 44h1M33 44h1M35 44h1M37 44h1M39 44h1M41 44h1M43 44h1M45 44h1M47 44h1M49 44h1M51 44h1M53 44h1M55 44h1M57 44h1M59 44h1M61 44h1M63 44h1M65 44h1M67 44h1M69 44h1M71 44h1M73 44h1M75 44h1M77 44h1M79 44h1M81 44h1M83 44h1M85 44h1M87 44h1M89 44h1M0 45h1M2 45h1M4 45h1M6 45h1M8 45h1M10 45h1M12 45h1M14 45h1M16 45h1M18 45h1M20 45h1M22 45h1M24 45h1M26 45h1M28 45h1M30 45h1M32 45h1M34 45h1M36 45h1M38 45h1M40 45h1M42 45h1M44 45h1M46 45h1M48 45h1M50 45h1M52 45h1M54 45h1M56 45h1M58 45h1M60 45h1M62 45h1M64 45h1M66 45h1M68 45h1M70 45h1M72 45h1M74 45h1M76 45h1M78 45h1M80 45h1M82 45h1M84 45h1M86 45h1M88 45h1M1 46h1M3 46h1M5 46h1M7 46h1M9 46h1M11 46h1M13 46h1M15 46h1M17 46h1M19 46h1M21 46h1M23 46h1M25 46h1M27 46h1M29 46h1M31 46h1M33 46h1M35 46h1M37 46h1M39 46h1M41 46h1M43 46h1M45 46h1M47 46h1M49 46h1M51 46h1M53 46h1M55 46h1M57 46h1M59 46h1M61 46h1M63 46h1M65 46h1M67 46h1M69 46h1M71 46h1M73 46h1M75 46h1M77 46h1M79 46h1M81 46h1M83 46h1M85 46h1M87 46h1M89 46h1M0 47h1M2 47h1M4 47h1M6 47h1M8 47h1M10 47h1M12 47h1M14 47h1M16 47h1M18 47h1M20 47h1M22 47h1M24 47h1M26 47h1M28 47h1M30 47h1M32 47h1M34 47h1M36 47h1M38 47h1M40 47h1M42 47h1M44 47h1M46 47h1M48 47h1M50 47h1M52 47h1M54 47h1M56 47h1M58 47h1M60 47h1M62 47h1M64 47h1M66 47h1M68 47h1M70 47h1M72 47h1M74 47h1M76 47h1M78 47h1M80 47h1M82 47h1M84 47h1M86 47h1M88 47h1M1 48h1M3 48h1M5 48h1M7 48h1M9 48h1M11 48h1M13 48h1M15 48h1M17 48h1M19 48h1M21 48h1M23 48h1M25 48h1M27 48h1M29 48h1M31 48h1M33 48h1M35 48h1M37 48h1M39 48h1M41 48h1M43 48h1M45 48h1M47 48h1M49 48h1M51 48h1M53 48h1M55 48h1M57 48h1M59 48h1M61 48h1M63 48h1M65 48h1M67 48h1M69 48h1M71 48h1M73 48h1M75 48h1M77 48h1M79 48h1M81 48h1M83 48h1M85 48h1M87 48h1M89 48h1M0 49h1M2 49h1M4 49h1M6 49h1M8 49h1M10 49h1M12 49h1M14 49h1M16 49h1M18 49h1M20 49h1M22 49h1M24 49h1M26 49h1M28 49h1M30 49h1M32 49h1M34 49h1M36 49h1M38 49h1M40 49h1M42 49h1M44 49h1M46 49h1M48 49h1M50 49h1M52 49h1M54 49h1M56 49h1M58 49h1M60 49h1M62 49h1M64 49h1M66 49h1M68 49h1M70 49h1M72 49h1M74 49h1M76 49h1M78 49h1M80 49h1M82 49h1M84 49h1M86 49h1M88 49h1M1 50h1M3 50h1M5 50h1M7 50h1M9 50h1M11 50h1M13 50h1M15 50h1M17 50h1M19 50h1M21 50h1M23 50h1M25 50h1M27 50h1M29 50h1M31 50h1M33 50h1M35 50h1M37 50h1M39 50h1M41 50h1M43 50h1M45 50h1M47 50h1M49 50h1M51 50h1M53 50h1M55 50h1M57 50h1M59 50h1M61 50h1M63 50h1M65 50h1M67 50h1M69 50h1M71 50h1M73 50h1M75 50h1M77 50h1M79 50h1M81 50h1M83 50h1M85 50h1M87 50h1M89 50h1M0 51h1M2 51h1M4 51h1M6 51h1M8 51h1M10 51h1M12 51h1M14 51h1M16 51h1M18 51h1M20 51h1M22 51h1M24 51h1M26 51h1M28 51h1M30 51h1M32 51h1M34 51h1M36 51h1M38 51h1M40 51h1M42 51h1M44 51h1M46 51h1M48 51h1M50 51h1M52 51h1M54 51h1M56 51h1M58 51h1M60 51h1M62 51h1M64 51h1M66 51h1M68 51h1M70 51h1M72 51h1M74 51h1M76 51h1M78 51h1M80 51h1M82 51h1M84 51h1M86 51h1M88 51h1M1 52h1M3 52h1M5 52h1M7 52h1M9 52h1M11 52h1M13 52h1M15 52h1M17 52h1M19 52h1M21 52h1M23 52h1M25 52h1M27 52h1M29 52h1M31 52h1M33 52h1M35 52h1M37 52h1M39 52h1M41 52h1M43 52h1M45 52h1M47 52h1M49 52h1M51 52h1M53 52h1M55 52h1M57 52h1M59 52h1M61 52h1M63 52h1M65 52h1M67 52h1M69 52h1M71 52h1M73 52h1M75 52h1M77 52h1M79 52h1M81 52h1M83 52h1M85 52h1M87 52h1M89 52h1M0 53h1M2 53h1M4 53h1M6 53h1M8 53h1M10 53h1M12 53h1M14 53h1M16 53h1M18 53h1M20 53h1M22 53h1M24 53h1M26 53h1M28 53h1M30 53h1M32 53h1M34 53h1M36 53h1M38 53h1M40 53h1M42 53h1M44 53h1M46 53h1M48 53h1M50 53h1M52 53h1M54 53h1M56 53h1M58 53h1M60 53h1M62 53h1M64 53h1M66 53h1M68 53h1M70 53h1M72 53h1M74 53h1M76 53h1M78 53h1M80 53h1M82 53h1M84 53h1M86 53h1M88 53h1M1 54h1M3 54h1M5 54h1M7 54h1M9 54h1M11 54h1M13 54h1M15 54h1M17 54h1M19 54h1M21 54h1M23 54h1M25 54h1M27 54h1M29 54h1M31 54h1M33 54h1M35 54h1M37 54h1M39 54h1M41 54h1M43 54h1M45 54h1M47 54h1M49 54h1M51 54h1M53 54h1M55 54h1M57 54h1M59 54h1M61 54h1M63 54h1M65 54h1M67 54h1M69 54h1M71 54h1M73 54h1M75 54h1M77 54h1M79 54h1M81 54h1M83 54h1M85 54h1M87 54h1M89 54h1M0 55h1M2 55h1M4 55h1M6 55h1M8 55h1M10 55h1M12 55h1M14 55h1M16 55h1M18 55h1M20 55h1M22 55h1M24 55h1M26 55h1M28 55h1M30 55h1M32 55h1M34 55h1M36 55h1M38 55h1M40 55h1M42 55h1M44 55h1M46 55h1M48 55h1M50 55h1M52 55h1M54 55h1M56 55h1M58 55h1M60 55h1M62 55h1M64 55h1M66 55h1M68 55h1M70 55h1M72 55h1M74 55h1M76 55h1M78 55h1M80 55h1M82 55h1M84 55h1M86 55h1M88 55h1M1 56h1M3 56h1M5 56h1M7 56h1M9 56h1M11 56h1M13 56h1M15 56h1M17 56h1M19 56h1M21 56h1M23 56h1M25 56h1M27 56h1M29 56h1M31 56h1M33 56h1M35 56h1M37 56h1M39 56h1M41 56h1M43 56h1M45 56h1M47 56h1M49 56h1M51 56h1M53 56h1M55 56h1M57 56h1M59 56h1M61 56h1M63 56h1M65 56h1M67 56h1M69 56h1M71 56h1M73 56h1M75 56h1M77 56h1M79 56h1M81 56h1M83 56h1M85 56h1M87 56h1M89 56h1M0 57h1M2 57h1M4 57h1M6 57h1M8 57h1M10 57h1M12 57h1M14 57h1M16 57h1M18 57h1M20 57h1M22 57h1M24 57h1M26 57h1M28 57h1M30 57h1M32 57h1M34 57h1M36 57h1M38 57h1M40 57h1M42 57h1M44 57h1M46 57h1M48 57h1M50 57h1M52 57h1M54 57h1M56 57h1M58 57h1M60 57h1M62 57h1M64 57h1M66 57h1M68 57h1M70 57h1M72 57h1M74 57h1M76 57h1M78 57h1M80 57h1M82 57h1M84 57h1M86 57h1M88 57h1M1 58h1M3 58h1M5 58h1M7 58h1M9 58h1M11 58h1M13 58h1M15 58h1M17 58h1M19 58h1M21 58h1M23 58h1M25 58h1M27 58h1M29 58h1M31 58h1M33 58h1M35 58h1M37 58h1M39 58h1M41 58h1M43 58h1M45 58h1M47 58h1M49 58h1M51 58h1M53 58h1M55 58h1M57 58h1M59 58h1M61 58h1M63 58h1M65 58h1M67 58h1M69 58h1M71 58h1M73 58h1M75 58h1M77 58h1M79 58h1M81 58h1M83 58h1M85 58h1M87 58h1M89 58h1M0 59h1M2 59h1M4 59h1M6 59h1M8 59h1M10 59h1M12 59h1M14 59h1M16 59h1M18 59h1M20 59h1M22 59h1M24 59h1M26 59h1M28 59h1M30 59h1M32 59h1M34 59h1M36 59h1M38 59h1M40 59h1M42 59h1M44 59h1M46 59h1M48 59h1M50 59h1M52 59h1M54 59h1M56 59h1M58 59h1M60 59h1M62 59h1M64 59h1M66 59h1M68 59h1M70 59h1M72 59h1M74 59h1M76 59h1M78 59h1M80 59h1M82 59h1M84 59h1M86 59h1M88 59h1M1 60h1M3 60h1M5 60h1M7 60h1M9 60h1M11 60h1M13 60h1M15 60h1M17 60h1M19 60h1M21 60h1M23 60h1M25 60h1M27 60h1M29 60h1M31 60h1M33 60h1M35 60h1M37 60h1M39 60h1M41 60h1M43 60h1M45 60h1M47 60h1M49 60h1M51 60h1M53 60h1M55 60h1M57 60h1M59 60h1M61 60h1M63 60h1M65 60h1M67 60h1M69 60h1M71 60h1M73 60h1M75 60h1M77 60h1M79 60h1M81 60h1M83 60h1M85 60h1M87 60h1M89 60h1M0 61h1M2 61h1M4 61h1M6 61h1M8 61h1M10 61h1M12 61h1M14 61h1M16 61h1M18 61h1M20 61h1M22 61h1M24 61h1M26 61h1M28 61h1M30 61h1M32 61h1M34 61h1M36 61h1M38 61h1M40 61h1M42 61h1M44 61h1M46 61h1M48 61h1M50 61h1M52 61h1M54 61h1M56 61h1M58 61h1M60 61h1M62 61h1M64 61h1M66 61h1M68 61h1M70 61h1M72 61h1M74 61h1M76 61h1M78 61h1M80 61h1M82 61h1M84 61h1M86 61h1M88 61h1M1 62h1M3 62h1M5 62h1M7 62h1M9 62h1M11 62h1M13 62h1M15 62h1M17 62h1M19 62h1M21 62h1M23 62h1M25 62h1M27 62h1M29 62h1M31 62h1M33 62h1M35 62h1M37 62h1M39 62h1M41 62h1M43 62h1M45 62h1M47 62h1M49 62h1M51 62h1M53 62h1M55 62h1M57 62h1M59 62h1M61 62h1M63 62h1M65 62h1M67 62h1M69 62h1M71 62h1M73 62h1M75 62h1M77 62h1M79 62h1M81 62h1M83 62h1M85 62h1M87 62h1M89 62h1M0 63h1M2 63h1M4 63h1M6 63h1M8 63h1M10 63h1M12 63h1M14 63h1M16 63h1M18 63h1M20 63h1M22 63h1M24 63h1M26 63h1M28 63h1M30 63h1M32 63h1M34 63h1M36 63h1M38 63h1M40 63h1M42 63h1M44 63h1M46 63h1M48 63h1M50 63h1M52 63h1M54 63h1M56 63h1M58 63h1M60 63h1M62 63h1M64 63h1M66 63h1M68 63h1M70 63h1M72 63h1M74 63h1M76 63h1M78 63h1M80 63h1M82 63h1M84 63h1M86 63h1M88 63h1M1 64h1M3 64h1M5 64h1M7 64h1M9 64h1M11 64h1M13 64h1M15 64h1M17 64h1M19 64h1M21 64h1M23 64h1M25 64h1M27 64h1M29 64h1M31 64h1M33 64h1M35 64h1M37 64h1M39 64h1M41 64h1M43 64h1M45 64h1M47 64h1M49 64h1M51 64h1M53 64h1M55 64h1M57 64h1M59 64h1M61 64h1M63 64h1M65 64h1M67 64h1M69 64h1M71 64h1M73 64h1M75 64h1M77 64h1M79 64h1M81 64h1M83 64h1M85 64h1M87 64h1M89 64h1M0 65h1M2 65h1M4 65h1M6 65h1M8 65h1M10 65h1M12 65h1M14 65h1M16 65h1M18 65h1M20 65h1M22 65h1M24 65h1M26 65h1M28 65h1M30 65h1M32 65h1M34 65h1M36 65h1M38 65h1M40 65h1M42 65h1M44 65h1M46 65h1M48 65h1M50 65h1M52 65h1M54 65h1M56 65h1M58 65h1M60 65h1M62 65h1M64 65h1M66 65h1M68 65h1M70 65h1M72 65h1M74 65h1M76 65h1M78 65h1M80 65h1M82 65h1M84 65h1M86 65h1M88 65h1M1 66h1M3 66h1M5 66h1M7 66h1M9 66h1M11 66h1M13 66h1M15 66h1M17 66h1M19 66h1M21 66h1M23 66h1M25 66h1M27 66h1M29 66h1M31 66h1M33 66h1M35 66h1M37 66h1M39 66h1M41 66h1M43 66h1M45 66h1M47 66h1M49 66h1M51 66h1M53 66h1M55 66h1M57 66h1M59 66h1M61 66h1M63 66h1M65 66h1M67 66h1M69 66h1M71 66h1M73 66h1M75 66h1M77 66h1M79 66h1M81 66h1M83 66h1M85 66h1M87 66h1M89 66h1M0 67h1M2 67h1M4 67h1M6 67h1M8 67h1M10 67h1M12 67h1M14 67h1M16 67h1M18 67h1M20 67h1M22 67h1M24 67h1M26 67h1M28 67h1M30 67h1M32 67h1M34 67h1M36 67h1M38 67h1M40 67h1M42 67h1M44 67h1M46 67h1M48 67h1M50 67h1M52 67h1M54 67h1M56 67h1M58 67h1M60 67h1M62 67h1M64 67h1M66 67h1M68 67h1M70 67h1M72 67h1M74 67h1M76 67h1M78 67h1M80 67h1M82 67h1M84 67h1M86 67h1M88 67h1M1 68h1M3 68h1M5 68h1M7 68h1M9 68h1M11 68h1M13 68h1M15 68h1M17 68h1M19 68h1M21 68h1M23 68h1M25 68h1M27 68h1M29 68h1M31 68h1M33 68h1M35 68h1M37 68h1M39 68h1M41 68h1M43 68h1M45 68h1M47 68h1M49 68h1M51 68h1M53 68h1M55 68h1M57 68h1M59 68h1M61 68h1M63 68h1M65 68h1M67 68h1M69 68h1M71 68h1M73 68h1M75 68h1M77 68h1M79 68h1M81 68h1M83 68h1M85 68h1M87 68h1M89 68h1M0 69h1M2 69h1M4 69h1M6 69h1M8 69h1M10 69h1M12 69h1M14 69h1M16 69h1M18 69h1M20 69h1M22 69h1M24 69h1M26 69h1M28 69h1M30 69h1M32 69h1M34 69h1M36 69h1M38 69h1M40 69h1M42 69h1M44 69h1M46 69h1M48 69h1M50 69h1M52 69h1M54 69h1M56 69h1M58 69h1M60 69h1M62 69h1M64 69h1M66 69h1M68 69h1M70 69h1M72 69h1M74 69h1M76 69h1M78 69h1M80 69h1M82 69h1M84 69h1M86 69h1M88 69h1M1 70h1M3 70h1M5 70h1M7 70h1M9 70h1M11 70h1M13 70h1M15 70h1M17 70h1M19 70h1M21 70h1M23 70h1M25 70h1M27 70h1M29 70h1M31 70h1M33 70h1M35 70h1M37 70h1M39 70h1M41 70h1M43 70h1M45 70h1M47 70h1M49 70h1M51 70h1M53 70h1M55 70h1M57 70h1M59 70h1M61 70h1M63 70h1M65 70h1M67 70h1M69 70h1M71 70h1M73 70h1M75 70h1M77 70h1M79 70h1M81 70h1M83 70h1M85 70h1M87 70h1M89 70h1M0 71h1M2 71h1M4 71h1M6 71h1M8 71h1M10 71h1M12 71h1M14 71h1M16 71h1M18 71h1M20 71h1M22 71h1M24 71h1M26 71h1M28 71h1M30 71h1M32 71h1M34 71h1M36 71h1M38 71h1M40 71h1M42 71h1M44 71h1M46 71h1M48 71h1M50 71h1M52 71h1M54 71h1M56 71h1M58 71h1M60 71h1M62 71h1M64 71h1M66 71h1M68 71h1M70 71h1M72 71h1M74 71h1M76 71h1M78 71h1M80 71h1M82 71h1M84 71h1M86 71h1M88 71h1M1 72h1M3 72h1M5 72h1M7 72h1M9 72h1M11 72h1M13 72h1M15 72h1M17 72h1M19 72h1M21 72h1M23 72h1M25 72h1M27 72h1M29 72h1M31 72h1M33 72h1M35 72h1M37 72h1M39 72h1M41 72h1M43 72h1M45 72h1M47 72h1M49 72h1M51 72h1M53 72h1M55 72h1M57 72h1M59 72h1M61 72h1M63 72h1M65 72h1M67 72h1M69 72h1M71 72h1M73 72h1M75 72h1M77 72h1M79 72h1M81 72h1M83 72h1M85 72h1M87 72h1M89 72h1M0 73h1M2 73h1M4 73h1M6 73h1M8 73h1M10 73h1M12 73h1M14 73h1M16 73h1M18 73h1M20 73h1M22 73h1M24 73h1M26 73h1M28 73h1M30 73h1M32 73h1M34 73h1M36 73h1M38 73h1M40 73h1M42 73h1M44 73h1M46 73h1M48 73h1M50 73h1M52 73h1M54 73h1M56 73h1M58 73h1M60 73h1M62 73h1M64 73h1M66 73h1M68 73h1M70 73h1M72 73h1M74 73h1M76 73h1M78 73h1M80 73h1M82 73h1M84 73h1M86 73h1M88 73h1M1 74h1M3 74h1M5 74h1M7 74h1M9 74h1M11 74h1M13 74h1M15 74h1M17 74h1M19 74h1M21 74h1M23 74h1M25 74h1M27 74h1M29 74h1M31 74h1M33 74h1M35 74h1M37 74h1M39 74h1M41 74h1M43 74h1M45 74h1M47 74h1M49 74h1M51 74h1M53 74h1M55 74h1M57 74h1M59 74h1M61 74h1M63 74h1M65 74h1M67 74h1M69 74h1M71 74h1M73 74h1M75 74h1M77 74h1M79 74h1M81 74h1M83 74h1M85 74h1M87 74h1M89 74h1M0 75h1M2 75h1M4 75h1M6 75h1M8 75h1M10 75h1M12 75h1M14 75h1M16 75h1M18 75h1M20 75h1M22 75h1M24 75h1M26 75h1M28 75h1M30 75h1M32 75h1M34 75h1M36 75h1M38 75h1M40 75h1M42 75h1M44 75h1M46 75h1M48 75h1M50 75h1M52 75h1M54 75h1M56 75h1M58 75h1M60 75h1M62 75h1M64 75h1M66 75h1M68 75h1M70 75h1M72 75h1M74 75h1M76 75h1M78 75h1M80 75h1M82 75h1M84 75h1M86 75h1M88 75h1M1 76h1M3 76h1M5 76h1M7 76h1M9 76h1M11 76h1M13 76h1M15 76h1M17 76h1M19 76h1M21 76h1M23 76h1M25 76h1M27 76h1M29 76h1M31 76h1M33 76h1M35 76h1M37 76h1M39 76h1M41 76h1M43 76h1M45 76h1M47 76h1M49 76h1M51 76h1M53 76h1M55 76h1M57 76h1M59 76h1M61 76h1M63 76h1M65 76h1M67 76h1M69 76h1M71 76h1M73 76h1M75 76h1M77 76h1M79 76h1M81 76h1M83 76h1M85 76h1M87 76h1M89 76h1M0 77h1M2 77h1M4 77h1M6 77h1M8 77h1M10 77h1M12 77h1M14 77h1M16 77h1M18 77h1M20 77h1M22 77h1M24 77h1M26 77h1M28 77h1M30 77h1M32 77h1M34 77h1M36 77h1M38 77h1M40 77h1M42 77h1M44 77h1M46 77h1M48 77h1M50 77h1M52 77h1M54 77h1M56 77h1M58 77h1M60 77h1M62 77h1M64 77h1M66 77h1M68 77h1M70 77h1M72 77h1M74 77h1M76 77h1M78 77h1M80 77h1M82 77h1M84 77h1M86 77h1M88 77h1M1 78h1M3 78h1M5 78h1M7 78h1M9 78h1M11 78h1M13 78h1M15 78h1M17 78h1M19 78h1M21 78h1M23 78h1M25 78h1M27 78h1M29 78h1M31 78h1M33 78h1M35 78h1M37 78h1M39 78h1M41 78h1M43 78h1M45 78h1M47 78h1M49 78h1M51 78h1M53 78h1M55 78h1M57 78h1M59 78h1M61 78h1M63 78h1M65 78h1M67 78h1M69 78h1M71 78h1M73 78h1M75 78h1M77 78h1M79 78h1M81 78h1M83 78h1M85 78h1M87 78h1M89 78h1M0 79h1M2 79h1M4 79h1M6 79h1M8 79h1M10 79h1M12 79h1M14 79h1M16 79h1M18 79h1M20 79h1M22 79h1M24 79h1M26 79h1M28 79h1M30 79h1M32 79h1M34 79h1M36 79h1M38 79h1M40 79h1M42 79h1M44 79h1M46 79h1M48 79h1M50 79h1M52 79h1M54 79h1M56 79h1M58 79h1M60 79h1M62 79h1M64 79h1M66 79h1M68 79h1M70 79h1M72 79h1M74 79h1M76 79h1M78 79h1M80 79h1M82 79h1M84 79h1M86 79h1M88 79h1M1 80h1M3 80h1M5 80h1M7 80h1M9 80h1M11 80h1M13 80h1M15 80h1M17 80h1M19 80h1M21 80h1M23 80h1M25 80h1M27 80h1M29 80h1M31 80h1M33 80h1M35 80h1M37 80h1M39 80h1M41 80h1M43 80h1M45 80h1M47 80h1M49 80h1M51 80h1M53 80h1M55 80h1M57 80h1M59 80h1M61 80h1M63 80h1M65 80h1M67 80h1M69 80h1M71 80h1M73 80h1M75 80h1M77 80h1M79 80h1M81 80h1M83 80h1M85 80h1M87 80h1M89 80h1M0 81h1M2 81h1M4 81h1M6 81h1M8 81h1M10 81h1M12 81h1M14 81h1M16 81h1M18 81h1M20 81h1M22 81h1M24 81h1M26 81h1M28 81h1M30 81h1M32 81h1M34 81h1M36 81h1M38 81h1M40 81h1M42 81h1M44 81h1M46 81h1M48 81h1M50 81h1M52 81h1M54 81h1M56 81h1M58 81h1M60 81h1M62 81h1M64 81h1M66 81h1M68 81h1M70 81h1M72 81h1M74 81h1M76 81h1M78 81h1M80 81h1M82 81h1M84 81h1M86 81h1M88 81h1M1 82h1M3 82h1M5 82h1M7 82h1M9 82h1M11 82h1M13 82h1M15 82h1M17 82h1M19 82h1M21 82h1M23 82h1M25 82h1M27 82h1M29 82h1M31 82h1M33 82h1M35 82h1M37 82h1M39 82h1M41 82h1M43 82h1M45 82h1M47 82h1M49 82h1M51 82h1M53 82h1M55 82h1M57 82h1M59 82h1M61 82h1M63 82h1M65 82h1M67 82h1M69 82h1M71 82h1M73 82h1M75 82h1M77 82h1M79 82h1M81 82h1M83 82h1M85 82h1M87 82h1M89 82h1M0 83h1M2 83h1M4 83h1M6 83h1M8 83h1M10 83h1M12 83h1M14 83h1M16 83h1M18 83h1M20 83h1M22 83h1M24 83h1M26 83h1M28 83h1M30 83h1M32 83h1M34 83h1M36 83h1M38 83h1M40 83h1M42 83h1M44 83h1M46 83h1M48 83h1M50 83h1M52 83h1M54 83h1M56 83h1M58 83h1M60 83h1M62 83h1M64 83h1M66 83h1M68 83h1M70 83h1M72 83h1M74 83h1M76 83h1M78 83h1M80 83h1M82 83h1M84 83h1M86 83h1M88 83h1M1 84h1M3 84h1M5 84h1M7 84h1M9 84h1M11 84h1M13 84h1M15 84h1M17 84h1M19 84h1M21 84h1M23 84h1M25 84h1M27 84h1M29 84h1M31 84h1M33 84h1M35 84h1M37 84h1M39 84h1M41 84h1M43 84h1M45 84h1M47 84h1M49 84h1M51 84h1M53 84h1M55 84h1M57 84h1M59 84h1M61 84h1M63 84h1M65 84h1M67 84h1M69 84h1M71 84h1M73 84h1M75 84h1M77 84h1M79 84h1M81 84h1M83 84h1M85 84h1M87 84h1M89 84h1M0 85h1M2 85h1M4 85h1M6 85h1M8 85h1M10 85h1M12 85h1M14 85h1M16 85h1M18 85h1M20 85h1M22 85h1M24 85h1M26 85h1M28 85h1M30 85h1M32 85h1M34 85h1M36 85h1M38 85h1M40 85h1M42 85h1M44 85h1M46 85h1M48 85h1M50 85h1M52 85h1M54 85h1M56 85h1M58 85h1M60 85h1M62 85h1M64 85h1M66 85h1M68 85h1M70 85h1M72 85h1M74 85h1M76 85h1M78 85h1M80 85h1M82 85h1M84 85h1M86 85h1M88 85h1M1 86h1M3 86h1M5 86h1M7 86h1M9 86h1M11 86h1M13 86h1M15 86h1M17 86h1M19 86h1M21 86h1M23 86h1M25 86h1M27 86h1M29 86h1M31 86h1M33 86h1M35 86h1M37 86h1M39 86h1M41 86h1M43 86h1M45 86h1M47 86h1M49 86h1M51 86h1M53 86h1M55 86h1M57 86h1M59 86h1M61 86h1M63 86h1M65 86h1M67 86h1M69 86h1M71 86h1M73 86h1M75 86h1M77 86h1M79 86h1M81 86h1M83 86h1M85 86h1M87 86h1M89 86h1M0 87h1M2 87h1M4 87h1M6 87h1M8 87h1M10 87h1M12 87h1M14 87h1M16 87h1M18 87h1M20 87h1M22 87h1M24 87h1M26 87h1M28 87h1M30 87h1M32 87h1M34 87h1M36 87h1M38 87h1M40 87h1M42 87h1M44 87h1M46 87h1M48 87h1M50 87h1M52 87h1M54 87h1M56 87h1M58 87h1M60 87h1M62 87h1M64 87h1M66 87h1M68 87h1M70 87h1M72 87h1M74 87h1M76 87h1M78 87h1M80 87h1M82 87h1M84 87h1M86 87h1M88 87h1M1 88h1M3 88h1M5 88h1M7 88h1M9 88h1M11 88h1M13 88h1M15 88h1M17 88h1M19 88h1M21 88h1M23 88h1M25 88h1M27 88h1M29 88h1M31 88h1M33 88h1M35 88h1M37 88h1M39 88h1M41 88h1M43 88h1M45 88h1M47 88h1M49 88h1M51 88h1M53 88h1M55 88h1M57 88h1M59 88h1M61 88h1M63 88h1M65 88h1M67 88h1M69 88h1M71 88h1M73 88h1M75 88h1M77 88h1M79 88h1M81 88h1M83 88h1M85 88h1M87 88h1M89 88h1M0 89h1M2 89h1M4 89h1M6 89h1M8 89h1M10 89h1M12 89h1M14 89h1M16 89h1M18 89h1M20 89h1M22 89h1M24 89h1M26 89h1M28 89h1M30 89h1M32 89h1M34 89h1M36 89h1M38 89h1M40 89h1M42 89h1M44 89h1M46 89h1M48 89h1M50 89h1M52 89h1M54 89h1M56 89h1M58 89h1M60 89h1M62 89h1M64 89h1M66 89h1M68 89h1M70 89h1M72 89h1M74 89h1M76 89h1M78 89h1M80 89h1M82 89h1M84 89h1M86 89h1M88 89h1" />
</svg>