<?xml version="1.0" encoding="UTF-8"?>
<svg xmlns="http://www.w3.org/2000/svg" width="200px" height="155px" viewBox="0 0 200 155" version="1.1">
	<path fill="none" d=" M 0.00 0.00 L 137.11 0.00 C 126.50 2.14 115.94 4.85 106.02 9.29 C 105.98 15.51 105.98 21.74 106.05 27.96 C 106.12 41.77 106.10 55.58 106.06 69.39 C 105.98 73.69 105.97 77.99 106.07 82.29 C 106.15 95.85 106.17 109.40 106.06 122.96 C 105.98 129.47 105.92 135.98 106.11 142.49 C 112.94 138.38 120.26 135.02 127.98 132.98 C 133.59 131.39 139.42 131.04 145.15 130.15 C 152.71 129.34 160.19 131.08 167.59 132.38 C 177.82 134.22 187.32 138.61 196.89 142.46 C 197.15 98.67 196.92 54.87 197.00 11.07 C 186.49 5.15 174.56 2.50 162.88 0.00 L 200.00 0.00 L 200.00 155.00 L 0.00 155.00 L 0.00 0.00 Z"/>
	<path fill="#231f20" d=" M 137.11 0.00 L 162.88 0.00 C 174.56 2.50 186.49 5.15 197.00 11.07 C 196.92 54.87 197.15 98.67 196.89 142.46 C 187.32 138.61 177.82 134.22 167.59 132.38 C 160.19 131.08 152.71 129.34 145.15 130.15 C 139.42 131.04 133.59 131.39 127.98 132.98 C 120.26 135.02 112.94 138.38 106.11 142.49 C 105.92 135.98 105.98 129.47 106.06 122.96 C 115.83 118.59 126.17 115.69 136.68 113.72 C 136.65 100.42 136.69 87.12 136.66 73.82 C 126.00 74.60 115.78 78.00 106.07 82.29 C 105.97 77.99 105.98 73.69 106.06 69.39 C 115.92 65.40 126.08 62.07 136.69 60.82 C 136.61 46.91 136.73 32.99 136.62 19.08 C 125.97 20.11 115.77 23.60 106.05 27.96 C 105.98 21.74 105.98 15.51 106.02 9.29 C 115.94 4.85 126.50 2.14 137.11 0.00 Z"/>
	<path fill="#231f20" d=" M 8.00 13.39 C 10.39 12.35 12.72 11.18 15.00 9.92 C 15.00 12.26 15.00 14.59 15.00 16.93 C 12.73 18.16 10.42 19.31 8.07 20.38 C 8.00 18.05 8.00 15.72 8.00 13.39 Z"/>
	<path fill="#231f20" d=" M 87.00 18.39 C 92.74 15.72 98.39 12.85 104.00 9.91 C 104.02 15.81 103.96 21.70 104.03 27.60 C 98.28 30.27 92.62 33.15 87.00 36.09 C 87.00 30.19 87.00 24.29 87.00 18.39 Z"/>
	<path fill="#231f20" d=" M 21.00 18.20 C 23.94 16.32 26.90 14.47 30.00 12.86 C 30.00 15.86 30.00 18.85 30.00 21.84 C 27.42 24.02 24.37 25.61 21.08 26.37 C 20.99 23.65 20.99 20.92 21.00 18.20 Z"/>
	<path fill="#231f20" d=" M 68.00 24.09 C 73.27 21.23 78.74 18.77 84.00 15.91 C 84.00 21.48 84.00 27.05 84.00 32.62 C 78.60 35.02 73.44 37.93 68.07 40.39 C 67.93 34.96 68.02 29.52 68.00 24.09 Z"/>
	<path fill="#231f20" d=" M 50.99 23.31 C 55.93 21.71 60.56 19.33 65.11 16.85 C 66.82 21.32 65.70 26.24 66.00 30.91 C 61.21 33.71 56.03 35.69 51.00 37.97 C 51.00 33.09 51.01 28.20 50.99 23.31 Z"/>
	<path fill="#007f00" d=" M 148.12 17.11 C 158.30 16.37 168.53 18.11 177.95 22.04 C 177.94 36.05 178.02 50.06 177.90 64.07 C 172.90 62.71 167.95 61.03 162.80 60.32 C 157.90 59.77 152.96 60.01 148.04 59.98 C 148.05 45.69 147.92 31.40 148.12 17.11 Z"/>
	<path fill="#231f20" d=" M 36.00 24.07 C 39.77 21.82 43.99 20.53 47.96 18.68 C 48.02 22.36 48.00 26.04 48.00 29.73 C 43.88 30.92 40.20 33.20 36.09 34.38 C 35.97 30.95 36.00 27.51 36.00 24.07 Z"/>
	<path fill="#fe0000" d=" M 106.05 27.96 C 115.77 23.60 125.97 20.11 136.62 19.08 C 136.73 32.99 136.61 46.91 136.69 60.82 C 126.08 62.07 115.92 65.40 106.06 69.39 C 106.10 55.58 106.12 41.77 106.05 27.96 Z"/>
	<path fill="#fe0000" d=" M 8.00 32.39 C 10.39 31.34 12.72 30.17 15.01 28.92 C 15.00 31.49 15.00 34.06 15.00 36.63 C 12.57 37.23 10.31 38.31 8.03 39.30 C 8.00 37.00 8.00 34.69 8.00 32.39 Z"/>
	<path fill="#231f20" d=" M 87.00 37.39 C 92.74 34.72 98.39 31.85 104.00 28.91 C 103.98 34.81 104.04 40.71 103.97 46.62 C 98.25 49.34 92.49 52.03 87.09 55.35 C 86.91 49.36 87.03 43.37 87.00 37.39 Z"/>
	<path fill="#fe0000" d=" M 21.00 37.20 C 23.94 35.32 26.91 33.47 30.01 31.86 C 29.97 35.09 30.06 38.32 29.95 41.55 C 26.87 42.96 24.15 44.99 21.12 46.47 C 20.98 43.38 20.98 40.29 21.00 37.20 Z"/>
	<path fill="#fe0000" d=" M 51.00 43.08 C 55.92 40.49 60.90 38.00 65.93 35.61 C 66.04 40.64 66.01 45.66 65.97 50.69 C 60.93 52.77 55.92 54.89 51.07 57.39 C 50.95 52.62 51.01 47.85 51.00 43.08 Z"/>
	<path fill="#fe0000" d=" M 68.06 43.45 C 73.31 40.80 78.14 37.16 83.91 35.61 C 84.06 40.94 84.02 46.29 83.96 51.62 C 78.51 53.88 73.54 57.17 68.11 59.44 C 67.94 54.11 67.96 48.78 68.06 43.45 Z"/>
	<path fill="#fe0000" d=" M 36.04 43.38 C 40.06 41.58 43.92 39.44 47.93 37.61 C 48.01 41.28 48.04 44.95 47.96 48.62 C 43.99 50.47 40.13 52.54 36.00 54.02 C 36.02 50.47 35.96 46.93 36.04 43.38 Z"/>
	<path fill="#fe0000" d=" M 8.00 50.37 C 10.42 49.77 12.68 48.69 14.97 47.70 C 15.00 50.03 15.00 52.37 15.00 54.70 C 12.72 55.66 10.47 56.70 8.09 57.39 C 8.01 55.05 8.00 52.71 8.00 50.37 Z"/>
	<path fill="#231f20" d=" M 87.00 56.13 C 92.39 52.81 98.59 51.19 104.00 47.91 C 104.00 53.81 103.99 59.70 104.01 65.60 C 98.27 68.27 92.63 71.16 87.00 74.06 C 87.00 68.09 87.00 62.11 87.00 56.13 Z"/>
	<path fill="#fe0000" d=" M 20.97 55.48 C 23.88 53.73 26.79 51.94 29.92 50.59 C 30.01 53.68 30.01 56.77 30.00 59.86 C 27.03 61.38 24.31 63.41 21.11 64.44 C 20.99 61.45 20.99 58.47 20.97 55.48 Z"/>
	<path fill="#fe0000" d=" M 68.04 61.38 C 73.41 58.95 78.57 56.08 83.93 53.61 C 84.06 59.05 83.98 64.48 84.00 69.92 C 78.73 72.77 73.26 75.23 68.00 78.09 C 68.02 72.52 67.96 66.95 68.04 61.38 Z"/>
	<path fill="#fe0000" d=" M 51.00 61.01 C 56.18 59.37 60.67 56.09 65.91 54.61 C 66.04 59.28 66.03 63.95 65.96 68.62 C 60.93 70.73 56.36 73.88 51.09 75.39 C 50.93 70.60 51.02 65.80 51.00 61.01 Z"/>
	<path fill="#fe0000" d=" M 36.04 61.38 C 40.06 59.58 43.92 57.44 47.93 55.61 C 48.03 59.40 48.00 63.20 48.01 66.99 C 44.07 68.89 39.95 70.36 36.06 72.37 C 35.99 68.71 35.96 65.04 36.04 61.38 Z"/>
	<path fill="#231f20" d=" M 7.98 70.09 C 10.25 68.85 12.56 67.68 14.92 66.61 C 15.00 68.97 15.01 71.33 15.00 73.69 C 12.73 74.66 10.49 75.73 8.09 76.37 C 8.02 74.28 7.99 72.18 7.98 70.09 Z"/>
	<path fill="#231f20" d=" M 87.01 75.01 C 92.75 72.48 98.52 70.00 104.00 66.91 C 104.00 72.56 104.00 78.21 104.00 83.86 C 98.82 87.75 92.60 89.87 87.00 93.06 C 87.00 87.04 86.99 81.02 87.01 75.01 Z"/>
	<path fill="#231f20" d=" M 21.05 74.47 C 23.92 72.69 26.81 70.93 29.92 69.59 C 30.02 72.68 30.01 75.77 30.00 78.86 C 27.01 80.34 24.34 82.49 21.10 83.41 C 20.99 80.43 20.94 77.45 21.05 74.47 Z"/>
	<path fill="#fefe00" d=" M 148.05 72.10 C 158.18 71.09 168.48 72.21 177.96 76.01 C 177.94 89.85 177.99 103.69 177.93 117.53 C 168.27 114.50 158.17 112.76 148.02 113.18 C 148.05 99.49 147.99 85.79 148.05 72.10 Z"/>
	<path fill="#231f20" d=" M 68.00 80.38 C 73.40 77.98 78.56 75.08 83.93 72.61 C 84.06 78.04 83.98 83.48 84.00 88.91 C 78.73 91.77 73.26 94.23 68.00 97.09 C 68.00 91.52 68.00 85.95 68.00 80.38 Z"/>
	<path fill="#231f20" d=" M 51.00 80.38 C 56.04 78.31 60.60 75.13 65.86 73.61 C 66.10 78.26 65.96 82.91 66.02 87.57 C 60.98 89.70 56.39 92.91 51.08 94.38 C 50.93 89.71 51.02 85.05 51.00 80.38 Z"/>
	<path fill="#0000fe" d=" M 106.07 82.29 C 115.78 78.00 126.00 74.60 136.66 73.82 C 136.69 87.12 136.65 100.42 136.68 113.72 C 126.17 115.69 115.83 118.59 106.06 122.96 C 106.17 109.40 106.15 95.85 106.07 82.29 Z"/>
	<path fill="#231f20" d=" M 36.02 80.32 C 39.94 78.64 43.84 76.89 47.91 75.63 C 48.03 79.08 48.00 82.53 48.00 85.99 C 44.08 87.90 39.94 89.34 36.07 91.38 C 35.98 87.69 35.98 84.01 36.02 80.32 Z"/>
	<path fill="#0000fe" d=" M 8.00 89.07 C 10.27 87.85 12.57 86.68 14.92 85.61 C 14.99 88.06 15.01 90.52 15.02 92.98 C 12.65 93.92 10.25 94.80 8.00 96.02 C 8.00 93.70 8.00 91.39 8.00 89.07 Z"/>
	<path fill="#231f20" d=" M 87.00 94.08 C 92.58 91.15 98.23 88.33 103.93 85.62 C 104.07 91.38 103.97 97.15 104.00 102.92 C 98.33 105.67 92.87 108.93 87.10 111.42 C 86.90 105.64 87.04 99.86 87.00 94.08 Z"/>
	<path fill="#0000fe" d=" M 20.99 94.13 C 23.80 92.02 26.94 90.42 29.90 88.52 C 30.02 91.63 30.01 94.74 30.01 97.86 C 27.41 100.01 24.36 101.57 21.09 102.38 C 20.99 99.63 20.99 96.88 20.99 94.13 Z"/>
	<path fill="#0000fe" d=" M 68.00 100.08 C 73.38 97.45 78.55 94.39 84.00 91.92 C 84.00 97.21 84.00 102.50 84.01 107.79 C 79.01 111.21 73.53 113.81 68.07 116.39 C 67.94 110.95 68.02 105.51 68.00 100.08 Z"/>
	<path fill="#0000fe" d=" M 51.04 99.37 C 55.92 96.92 61.07 95.10 65.94 92.63 C 66.05 97.39 65.99 102.15 66.00 106.92 C 61.08 109.51 56.10 112.00 51.07 114.39 C 50.97 109.38 50.97 104.37 51.04 99.37 Z"/>
	<path fill="#0000fe" d=" M 36.00 100.09 C 39.88 98.09 43.67 95.79 47.91 94.61 C 48.04 98.28 48.00 101.95 48.00 105.63 C 43.77 106.55 40.29 109.37 36.09 110.40 C 35.97 106.96 36.00 103.52 36.00 100.09 Z"/>
	<path fill="#0000fe" d=" M 8.00 107.30 C 10.27 106.34 12.52 105.30 14.90 104.62 C 14.98 106.71 15.01 108.81 15.03 110.91 C 12.75 112.14 10.43 113.31 8.08 114.39 C 8.00 112.03 8.00 109.66 8.00 107.30 Z"/>
	<path fill="#231f20" d=" M 87.00 113.38 C 92.74 110.72 98.39 107.85 104.00 104.91 C 103.99 110.81 104.00 116.71 104.00 122.62 C 98.15 125.14 92.63 128.31 87.12 131.46 C 86.88 125.44 87.05 119.41 87.00 113.38 Z"/>
	<path fill="#0000fe" d=" M 21.01 112.20 C 23.94 110.32 26.91 108.47 30.00 106.86 C 29.99 110.08 29.99 113.30 30.03 116.52 C 27.12 118.27 24.21 120.06 21.08 121.41 C 20.98 118.34 20.99 115.27 21.01 112.20 Z"/>
	<path fill="#0000fe" d=" M 68.00 118.08 C 73.27 115.23 78.74 112.77 84.00 109.91 C 83.98 115.48 84.04 121.05 83.97 126.63 C 78.37 128.63 73.75 132.68 68.09 134.38 C 67.92 128.95 68.03 123.52 68.00 118.08 Z"/>
	<path fill="#0000fe" d=" M 51.00 118.08 C 55.92 115.49 60.90 113.00 65.93 110.61 C 66.06 115.65 65.98 120.69 66.00 125.73 C 60.74 127.29 56.02 130.10 51.07 132.39 C 50.95 127.62 51.01 122.85 51.00 118.08 Z"/>
	<path fill="#0000fe" d=" M 36.00 118.01 C 40.13 116.56 43.98 114.48 47.93 112.61 C 48.01 116.28 48.04 119.95 47.96 123.62 C 43.94 125.42 40.08 127.56 36.07 129.39 C 35.97 125.60 36.00 121.80 36.00 118.01 Z"/>
	<path fill="#231f20" d=" M 8.00 126.32 C 10.27 125.34 12.51 124.26 14.91 123.62 C 15.00 125.96 15.01 128.29 15.00 130.63 C 12.57 131.20 10.32 132.31 8.04 133.32 C 8.00 130.98 8.00 128.65 8.00 126.32 Z"/>
	<path fill="#231f20" d=" M 87.00 132.40 C 92.74 130.02 97.93 126.37 103.92 124.62 C 104.08 130.29 103.97 135.95 104.00 141.62 C 98.05 143.96 92.85 147.72 87.08 150.41 C 86.92 144.41 87.03 138.40 87.00 132.40 Z"/>
	<path fill="#231f20" d=" M 21.00 131.13 C 24.11 129.53 27.08 127.67 30.02 125.79 C 29.98 129.04 30.04 132.30 29.96 135.55 C 26.85 136.92 24.17 139.03 21.10 140.47 C 20.97 137.36 20.99 134.24 21.00 131.13 Z"/>
	<path fill="#231f20" d=" M 68.00 137.38 C 73.40 134.97 78.56 132.07 83.93 129.61 C 84.07 134.94 83.97 140.28 84.01 145.61 C 78.61 148.02 73.45 150.93 68.07 153.39 C 67.94 148.05 68.02 142.72 68.00 137.38 Z"/>
	<path fill="#231f20" d=" M 51.00 137.09 C 55.92 134.86 60.44 131.23 65.96 130.76 C 66.03 135.14 65.99 139.53 66.00 143.92 C 61.08 146.51 56.10 149.00 51.07 151.39 C 50.94 146.62 51.02 141.85 51.00 137.09 Z"/>
	<path fill="#231f20" d=" M 36.03 137.38 C 40.06 135.59 43.91 133.44 47.92 131.61 C 48.02 135.28 48.03 138.95 47.97 142.62 C 43.99 144.46 40.13 146.55 36.00 148.02 C 36.01 144.47 35.97 140.92 36.03 137.38 Z"/>
</svg>