<svg xmlns="http://www.w3.org/2000/svg" viewBox="0 -0.5 135 84" shape-rendering="crispEdges">
	<path stroke="rgba(252,252,84,0.996078431372549)" d="M56 0h18M50 1h5M57 1h23M46 2h3M51 2h5M74 2h10M43 3h2M47 3h3M80 3h7M40 4h2M44 4h2M84 4h6M38 5h1M41 5h2M87 5h5M35 6h2M39 6h1M90 6h5M33 7h2M36 7h2M92 7h5M31 8h2M34 8h2M94 8h5M30 9h1M32 9h2M96 9h4M28 10h1M31 10h1M98 10h4M27 11h1M29 11h1M100 11h3M25 12h1M28 12h1M101 12h4M24 13h1M26 13h1M103 13h3M22 14h1M25 14h1M104 14h4M21 15h1M23 15h1M106 15h3M20 16h1M22 16h1M107 16h3M19 17h1M21 17h1M108 17h3M18 18h1M20 18h1M109 18h3M17 19h1M19 19h1M110 19h3M16 20h1M18 20h1M111 20h3M15 21h1M17 21h1M112 21h3M14 22h1M16 22h1M105 22h3M113 22h3M13 23h1M15 23h1M104 23h5M114 23h3M12 24h1M14 24h1M104 24h5M115 24h3M13 25h1M104 25h2M107 25h2M116 25h2M11 26h1M104 26h2M107 26h3M117 26h2M10 27h1M12 27h1M103 27h2M108 27h2M117 27h3M11 28h1M102 28h3M108 28h3M118 28h2M9 29h1M102 29h2M108 29h3M119 29h2M8 30h1M10 30h1M102 30h2M109 30h2M119 30h2M9 31h1M101 31h3M109 31h3M120 31h2M7 32h1M101 32h2M109 32h3M121 32h2M8 33h1M101 33h2M110 33h2M121 33h2M6 34h1M100 34h3M110 34h3M7 35h1M100 35h2M111 35h2M5 36h1M99 36h3M111 36h3M6 37h1M81 37h21M111 37h21M4 38h1M80 38h21M112 38h21M4 39h2M81 39h20M112 39h20M3 40h1M5 40h1M127 40h4M3 41h2M107 41h3M126 41h4M4 42h1M105 42h4M125 42h4M2 43h1M72 43h1M89 43h2M103 43h4M124 43h4M2 44h2M74 44h1M89 44h2M100 44h4M123 44h4M2 45h2M30 45h1M73 45h3M82 45h1M88 45h3M98 45h3M122 45h4M3 46h1M30 46h1M57 46h2M61 46h2M74 46h1M80 46h3M87 46h3M96 46h3M121 46h4M1 47h1M57 47h1M60 47h3M78 47h4M87 47h3M94 47h3M120 47h4M1 48h2M49 48h2M56 48h2M59 48h4M76 48h6M86 48h3M92 48h3M119 48h4M1 49h2M51 49h1M56 49h4M62 49h2M70 49h1M75 49h3M79 49h2M87 49h2M90 49h3M118 49h4M1 50h2M33 50h2M55 50h4M63 50h3M69 50h2M72 50h4M79 50h2M87 50h5M94 50h3M117 50h4M2 51h1M33 51h2M37 51h2M54 51h4M65 51h1M71 51h3M79 51h1M87 51h3M94 51h3M117 51h3M0 52h1M32 52h2M36 52h3M53 52h2M56 52h2M70 52h3M79 52h1M82 52h1M86 52h1M88 52h1M94 52h2M118 52h2M0 53h2M31 53h3M35 53h4M44 53h1M52 53h2M55 53h2M69 53h4M79 53h4M85 53h1M87 53h1M93 53h3M118 53h3M0 54h2M30 54h3M35 54h1M37 54h2M44 54h2M51 54h2M55 54h2M69 54h3M80 54h1M93 54h3M118 54h3M0 55h2M29 55h6M37 55h2M44 55h3M50 55h2M55 55h1M69 55h1M71 55h1M93 55h3M118 55h3M0 56h2M28 56h6M37 56h2M42 56h4M48 56h3M54 56h2M71 56h1M93 56h2M119 56h2M0 57h2M27 57h2M31 57h2M37 57h12M92 57h3M105 57h4M119 57h3M14 58h1M26 58h2M30 58h3M38 58h4M46 58h1M84 58h1M92 58h3M103 58h8M119 58h3M3 59h1M11 59h6M25 59h2M30 59h2M85 59h1M92 59h3M102 59h10M119 59h3M3 60h12M23 60h3M30 60h2M91 60h3M100 60h5M109 60h5M120 60h3M4 61h7M14 61h1M22 61h2M30 61h1M63 61h1M91 61h3M99 61h4M111 61h4M120 61h3M14 62h2M20 62h3M64 62h1M91 62h3M97 62h5M112 62h5M120 62h3M15 63h6M91 63h2M96 63h4M114 63h4M121 63h2M17 64h2M62 64h1M91 64h3M95 64h5M115 64h5M121 64h3M62 65h2M90 65h7M117 65h7M62 66h2M90 66h6M118 66h6M62 67h3M89 67h5M120 67h5M89 68h3M122 68h3" />
	<path stroke="rgba(252,252,84,0.984313725490196)" d="M55 1h2M49 2h2M45 3h2M42 4h2M39 5h2M37 6h2M35 7h1M33 8h1M31 9h1M29 10h2M28 11h1M26 12h2M25 13h1M23 14h2M22 15h1M21 16h1M20 17h1M19 18h1M18 19h1M17 20h1M16 21h1M15 22h1M14 23h1M13 24h1M12 25h1M12 26h1M11 27h1M10 28h1M10 29h1M9 30h1M8 31h1M8 32h1M7 33h1M7 34h1M6 35h1M6 36h1M5 37h1M5 38h1M4 40h1M3 42h1M3 43h1M26 44h4M70 44h4M24 45h3M29 45h1M69 45h2M2 46h1M23 46h2M29 46h1M68 46h2M73 46h1M2 47h1M22 47h2M29 47h1M67 47h2M72 47h2M21 48h2M28 48h2M66 48h2M71 48h2M20 49h2M28 49h1M47 49h4M66 49h1M71 49h1M85 49h2M19 50h2M27 50h2M46 50h2M50 50h1M66 50h1M84 50h2M1 51h1M18 51h2M26 51h2M45 51h2M49 51h2M64 51h1M66 51h4M83 51h2M1 52h1M17 52h2M25 52h2M45 52h1M48 52h2M64 52h1M83 52h1M87 52h1M17 53h1M24 53h2M45 53h1M47 53h2M64 53h2M86 53h1M16 54h2M23 54h2M46 54h2M65 54h4M84 54h3M16 55h1M21 55h3M68 55h1M82 55h2M86 55h1M15 56h2M20 56h2M67 56h2M70 56h1M81 56h2M85 56h2M15 57h1M18 57h3M66 57h1M70 57h1M80 57h2M85 57h1M15 58h4M65 58h2M69 58h2M79 58h2M85 58h1M65 59h1M69 59h1M79 59h1M84 59h1M64 60h2M68 60h2M78 60h2M84 60h1M64 61h1M68 61h1M77 61h2M83 61h2M63 62h1M67 62h2M77 62h1M83 62h1M63 63h1M67 63h1M76 63h2M82 63h2M63 64h1M66 64h2M76 64h1M82 64h1M65 65h2M75 65h2M81 65h2M64 66h2M75 66h1M81 66h1M75 67h1M80 67h2M75 68h2M79 68h2M76 69h4" />
	<path stroke="rgba(252,252,84,0.9764705882352941)" d="M83 54h1" />
	<path stroke="rgba(84,252,84,0.9921568627450981)" d="M2 73h133M3 77h5M9 77h4M17 77h1M25 77h4M32 77h3M37 77h1M43 77h1M49 77h1M53 77h1M55 77h5M61 77h3M66 77h3M71 77h1M75 77h1M81 77h4M87 77h4M93 77h5M99 77h1M103 77h1M105 77h5M111 77h1M115 77h1M117 77h5M123 77h5M129 77h4M3 78h1M9 78h1M13 78h1M17 78h1M25 78h1M29 78h1M31 78h1M35 78h1M37 78h1M43 78h1M49 78h1M53 78h1M57 78h1M62 78h1M65 78h1M69 78h1M71 78h2M75 78h1M81 78h1M85 78h1M87 78h1M91 78h1M93 78h1M99 78h1M103 78h1M105 78h1M111 78h2M115 78h1M119 78h1M123 78h1M129 78h1M133 78h1M3 79h1M9 79h1M13 79h1M16 79h3M25 79h1M29 79h1M31 79h1M35 79h1M37 79h1M43 79h1M49 79h1M53 79h1M57 79h1M62 79h1M65 79h1M69 79h1M71 79h2M75 79h1M81 79h1M85 79h1M87 79h1M91 79h1M93 79h1M99 79h1M103 79h1M105 79h1M111 79h2M115 79h1M119 79h1M123 79h1M129 79h1M133 79h1M3 80h4M9 80h4M16 80h1M18 80h1M25 80h4M31 80h1M35 80h1M37 80h1M43 80h1M49 80h1M53 80h1M57 80h1M62 80h1M65 80h1M69 80h1M71 80h1M73 80h1M75 80h1M81 80h4M88 80h1M90 80h1M93 80h4M100 80h1M102 80h1M105 80h4M111 80h1M113 80h1M115 80h1M119 80h1M123 80h4M130 80h1M132 80h1M3 81h1M9 81h1M15 81h1M17 81h1M19 81h1M25 81h1M31 81h1M35 81h1M37 81h1M43 81h1M49 81h1M53 81h1M57 81h1M62 81h1M65 81h1M69 81h1M71 81h1M74 81h2M81 81h1M87 81h1M89 81h1M93 81h1M100 81h1M102 81h1M105 81h1M111 81h1M114 81h2M119 81h1M123 81h1M129 81h1M131 81h1M3 82h1M9 82h1M15 82h1M19 82h1M25 82h1M31 82h1M35 82h1M37 82h1M43 82h1M49 82h1M53 82h1M57 82h1M62 82h1M65 82h1M69 82h1M71 82h1M74 82h2M81 82h1M87 82h1M90 82h1M93 82h1M101 82h1M105 82h1M111 82h1M114 82h2M119 82h1M123 82h1M129 82h1M132 82h1M3 83h5M9 83h1M15 83h1M19 83h1M25 83h1M32 83h3M37 83h5M43 83h5M50 83h3M57 83h1M61 83h3M66 83h3M71 83h1M75 83h1M81 83h1M87 83h1M91 83h1M93 83h5M101 83h1M105 83h5M111 83h1M115 83h1M119 83h1M123 83h5M129 83h1M133 83h1" />
	<path stroke="rgba(84,252,84,0.9764705882352941)" d="M87 80h1M89 80h1M129 80h1M131 80h1M16 81h1M18 81h1" />
</svg>