<svg xmlns="http://www.w3.org/2000/svg" viewBox="0 -0.5 16 16" shape-rendering="crispEdges">
	<path stroke="#000000" d="M9 1h4M7 2h8M0 3h1M6 3h3M10 3h2M13 3h3M0 4h1M2 4h1M4 4h4M10 4h2M14 4h2M2 5h6M10 5h2M14 5h2M6 6h2M9 6h4M14 6h2M6 7h10M6 8h3M10 8h2M13 8h3M6 9h2M10 9h2M14 9h2M6 10h2M10 10h2M14 10h2M6 11h2M9 11h4M14 11h2M0 12h1M6 12h10M0 13h1M2 13h1M4 13h5M13 13h3M2 14h5M15 14h1" />
	<path stroke="#ff0000" d="M9 3h1M8 4h2M8 5h2M0 6h1M8 6h1M0 7h1M2 7h1M4 7h2M2 8h4" />
	<path stroke="#00ff00" d="M12 3h1M12 4h2M12 5h2M13 6h1" />
	<path stroke="#0000ff" d="M9 8h1M0 9h1M8 9h2M0 10h1M2 10h1M4 10h2M8 10h2M2 11h4M8 11h1" />
	<path stroke="#ffff00" d="M12 8h1M12 9h2M12 10h2M13 11h1" />
</svg>