<?xml version="1.0" encoding="utf-8"?>
<!-- Generator: Adobe Illustrator 22.0.1, SVG Export Plug-In . SVG Version: 6.00 Build 0)  -->
<svg version="1.1" id="Layer_1" xmlns="http://www.w3.org/2000/svg" xmlns:xlink="http://www.w3.org/1999/xlink" x="0px" y="0px"
	 viewBox="0 0 1200 1200" style="enable-background:new 0 0 1200 1200;" xml:space="preserve">
<style type="text/css">
	.st0{fill:#1D1D1B;}
	.st1{fill:url(#SVGID_1_);}
	.st2{fill:url(#SVGID_2_);}
	.st3{fill:url(#SVGID_3_);}
	.st4{fill:url(#SVGID_4_);}
	.st5{fill:url(#SVGID_5_);}
	.st6{fill:url(#SVGID_6_);}
	.st7{fill:url(#SVGID_7_);}
	.st8{fill:url(#SVGID_8_);}
	.st9{fill:none;}
</style>
<path class="st0" d="M612,982.4c7.9-0.2,15.8-0.7,23.6-1.5l96.2,57.1l13.5,8l5.4-14.7l39.5-108.5c13-9.3,25.3-19.5,36.8-30.6
	l66.6,4.9l13,1c11.3,19.6,32.5,31.8,55.1,31.8c7.4,0,14.8-1.3,21.7-3.9c-0.1,0.9-0.1,1.8,0,2.7c0.5,4.8,3.7,8.8,8.3,10.2l157.5,50
	c1.2,0.4,2.4,0.6,3.7,0.6c4.2,0,8.1-2.2,10.3-5.9c2.8-4.9,1.9-11-2.2-14.8c-16.1-15-97.4-90.7-121.5-112.2c-3.5-3.2-8.6-3.9-12.9-2
	c-0.8,0.3-1.5,0.8-2.2,1.3c-1.2-7.4-3.8-14.6-7.6-21.3c-11.3-19.7-32.5-31.9-55.2-31.9c-0.2,0-0.5,0-0.7,0l-6.8-10.4l-31.3-47.9
	l-3.8-5.9l-7,0l-136.4-0.3h0h0c-3.9,0-7.5,1.7-10,4.5l-0.2-0.1c-4.7-2.7-10.1-4.2-15.6-4.2c-9.9,0-19.4,4.8-25.4,12.8
	c-27.9,37.2-70.4,59.2-116.7,60.5l-4.2,0.1l-4.3-0.1c-51-1.3-97.6-28-124.6-71.5l-2.2-3.6l-2-3.7c-1.8-3.3-3.5-6.8-5.1-10.3h443.2
	h11.1l1.8-10.9c1.4-8.8,2.5-17.8,3.2-26.8l72.5-85.1l10.2-11.9l-13.6-7.8L895.2,524c-3.5-7.4-7.2-14.6-11.2-21.7l-8.7-14.5
	c-2.2-3.5-4.5-7-6.9-10.5l-2.1-116.3l-0.3-15.4l-15.2,2.9l-109.5,20.8c-16.1-7.6-32.8-14-49.9-18.8l-26.9-56.8l-5.5-11.5
	c15.7-27.1,9.7-60.8-12.6-81.1c1.7-0.9,3.2-2,4.4-3.6c2.6-3.2,3.5-7.3,2.7-11.3L616.9,18.1c-1.4-6.2-6.8-10.6-13.2-10.6
	c-6.3,0-11.7,4.3-13.1,10.4c-5.3,22.7-31.8,137.3-38.1,168.1c-0.8,4,0.2,8.1,2.7,11.2c1.2,1.4,2.6,2.6,4.2,3.4
	c-5.2,4.6-9.7,10-13.2,16.1c-6.7,11.5-9.7,24.5-8.7,37.7c0.8,10.1,3.8,19.7,8.9,28.3l-5.4,11.4l-26.8,56.6
	c-15.7,4.5-31,10.2-45.8,17l-112.2-19.7l-15.2-2.7l-0.1,15.4l-0.4,113.2c-3.9,5.5-7.6,11.1-11.1,16.8l-8.5,14.6
	c-3.1,5.6-6,11.3-8.8,17.1l-98.7,56.4l-13.6,7.8l10.2,11.9l72,84.5c1.2,17.8,4,35.5,8.1,52.9l-37.4,53.3l-8,11.5
	c-30.6,1-55.9,23.1-61.8,52.2c-2.2-1.5-4.9-2.4-7.6-2.4c-3.4,0-6.6,1.3-9.1,3.5L39.6,970c-4.1,3.8-5.5,9.6-3.5,14.8
	c2,5.2,7,8.6,12.5,8.6c1.3,0,2.7-0.2,4-0.6c22-6.8,133.3-41,163.9-51.2c5.1-1.7,8.7-6.2,9.1-11.5c0.1-0.8,0.1-1.5,0-2.2
	c6.6,2.3,13.8,3.5,21.2,3.5c23.7,0,45.1-12.6,56.6-32.8l13.1-1l63.8-4.7c12.7,12.2,26.5,23.4,41,33.4l38.5,105.5l5.4,14.7l13.5-8
	l96.4-57.2c6.7,0.6,13.4,1,20,1.1L612,982.4z M475,580c27.1-43.1,73.5-69.5,124.2-70.8l4.3-0.1l4.1,0.1c49.9,1.4,95.9,27.4,123,69.5
	l2.3,3.5l2.1,3.7c2.1,3.7,4,7.4,5.8,11.3H465.8c1.5-3.4,3.2-6.7,5-9.9l2.1-3.9L475,580z"/>
<g>
	<g>
		
			<radialGradient id="SVGID_1_" cx="600.1937" cy="591.3004" r="459.4773" gradientTransform="matrix(1 0 0 -1 0 1200)" gradientUnits="userSpaceOnUse">
			<stop  offset="0" style="stop-color:#FF6D00"/>
			<stop  offset="2.590000e-02" style="stop-color:#FF7800"/>
			<stop  offset="0.1452" style="stop-color:#FFA800"/>
			<stop  offset="0.2586" style="stop-color:#FFCD00"/>
			<stop  offset="0.3634" style="stop-color:#FFE800"/>
			<stop  offset="0.4564" style="stop-color:#FFF800"/>
			<stop  offset="0.5279" style="stop-color:#FFFE00"/>
			<stop  offset="0.5786" style="stop-color:#FFF600"/>
			<stop  offset="0.6577" style="stop-color:#FFE000"/>
			<stop  offset="0.7552" style="stop-color:#FFBC00"/>
			<stop  offset="0.8663" style="stop-color:#FF8A00"/>
			<stop  offset="0.9246" style="stop-color:#FF6D00"/>
		</radialGradient>
		<path class="st1" d="M175.6,866c0-1,0-2,0.1-3L46.8,981c2.1-0.6,135.2-41.6,166.6-52.1C190.9,916.9,175.6,893.2,175.6,866z"/>
		
			<radialGradient id="SVGID_2_" cx="600.1937" cy="591.3004" r="459.4773" gradientTransform="matrix(1 0 0 -1 0 1200)" gradientUnits="userSpaceOnUse">
			<stop  offset="0" style="stop-color:#FF6D00"/>
			<stop  offset="2.590000e-02" style="stop-color:#FF7800"/>
			<stop  offset="0.1452" style="stop-color:#FFA800"/>
			<stop  offset="0.2586" style="stop-color:#FFCD00"/>
			<stop  offset="0.3634" style="stop-color:#FFE800"/>
			<stop  offset="0.4564" style="stop-color:#FFF800"/>
			<stop  offset="0.5279" style="stop-color:#FFFE00"/>
			<stop  offset="0.5786" style="stop-color:#FFF600"/>
			<stop  offset="0.6577" style="stop-color:#FFE000"/>
			<stop  offset="0.7552" style="stop-color:#FFBC00"/>
			<stop  offset="0.8663" style="stop-color:#FF8A00"/>
			<stop  offset="0.9246" style="stop-color:#FF6D00"/>
		</radialGradient>
		<path class="st2" d="M603.7,18.8c0,0-32.3,139.3-38.8,170.9c9.8-6.1,20.9-9.8,32.3-10.6l6.3-0.2c11.8,0.1,23.7,3.2,34.6,9.6
			c1,0.6,2,1.2,3,1.8L603.7,18.8z"/>
		
			<radialGradient id="SVGID_3_" cx="600.1937" cy="591.3004" r="459.4773" gradientTransform="matrix(1 0 0 -1 0 1200)" gradientUnits="userSpaceOnUse">
			<stop  offset="0" style="stop-color:#FF6D00"/>
			<stop  offset="2.590000e-02" style="stop-color:#FF7800"/>
			<stop  offset="0.1452" style="stop-color:#FFA800"/>
			<stop  offset="0.2586" style="stop-color:#FFCD00"/>
			<stop  offset="0.3634" style="stop-color:#FFE800"/>
			<stop  offset="0.4564" style="stop-color:#FFF800"/>
			<stop  offset="0.5279" style="stop-color:#FFFE00"/>
			<stop  offset="0.5786" style="stop-color:#FFF600"/>
			<stop  offset="0.6577" style="stop-color:#FFE000"/>
			<stop  offset="0.7552" style="stop-color:#FFBC00"/>
			<stop  offset="0.8663" style="stop-color:#FF8A00"/>
			<stop  offset="0.9246" style="stop-color:#FF6D00"/>
		</radialGradient>
		<path class="st3" d="M576.4,294.8c23.1,13.4,52.2,7.2,67.9-13.6c1.3-1.7,2.5-3.5,3.6-5.4c14.5-25,6-57-19-71.5
			c-25-14.5-57-6-71.5,19c-11,19-8.8,42,3.9,58.3C565.3,286.8,570.4,291.3,576.4,294.8z"/>
		
			<radialGradient id="SVGID_4_" cx="600.1937" cy="591.3004" r="459.4773" gradientTransform="matrix(1 0 0 -1 0 1200)" gradientUnits="userSpaceOnUse">
			<stop  offset="0" style="stop-color:#FF6D00"/>
			<stop  offset="2.590000e-02" style="stop-color:#FF7800"/>
			<stop  offset="0.1452" style="stop-color:#FFA800"/>
			<stop  offset="0.2586" style="stop-color:#FFCD00"/>
			<stop  offset="0.3634" style="stop-color:#FFE800"/>
			<stop  offset="0.4564" style="stop-color:#FFF800"/>
			<stop  offset="0.5279" style="stop-color:#FFFE00"/>
			<stop  offset="0.5786" style="stop-color:#FFF600"/>
			<stop  offset="0.6577" style="stop-color:#FFE000"/>
			<stop  offset="0.7552" style="stop-color:#FFBC00"/>
			<stop  offset="0.8663" style="stop-color:#FF8A00"/>
			<stop  offset="0.9246" style="stop-color:#FF6D00"/>
		</radialGradient>
		<path class="st4" d="M1031.1,864.4c0.3,10.1-1.7,20.2-5.7,29.5c-5.7,13.2-15.6,24.8-29.1,32.5c-0.7,0.4-1.4,0.8-2.2,1.2
			l160.6,50.9C1154.7,978.5,1056.1,886.7,1031.1,864.4z"/>
		
			<radialGradient id="SVGID_5_" cx="600.1937" cy="591.3004" r="459.4773" gradientTransform="matrix(1 0 0 -1 0 1200)" gradientUnits="userSpaceOnUse">
			<stop  offset="0" style="stop-color:#FF6D00"/>
			<stop  offset="2.590000e-02" style="stop-color:#FF7800"/>
			<stop  offset="0.1452" style="stop-color:#FFA800"/>
			<stop  offset="0.2586" style="stop-color:#FFCD00"/>
			<stop  offset="0.3634" style="stop-color:#FFE800"/>
			<stop  offset="0.4564" style="stop-color:#FFF800"/>
			<stop  offset="0.5279" style="stop-color:#FFFE00"/>
			<stop  offset="0.5786" style="stop-color:#FFF600"/>
			<stop  offset="0.6577" style="stop-color:#FFE000"/>
			<stop  offset="0.7552" style="stop-color:#FFBC00"/>
			<stop  offset="0.8663" style="stop-color:#FF8A00"/>
			<stop  offset="0.9246" style="stop-color:#FF6D00"/>
		</radialGradient>
		<path class="st5" d="M1005,892.4c9.2-15.3,10-34.9,0.5-51.4c-10.7-18.6-31.3-27.8-51.3-24.8c-6.1,0.9-12.2,2.9-17.8,6.2
			c-22.3,12.9-31.2,40.2-21.5,63.3c0.8,2,1.8,3.9,2.9,5.8c14,24.2,44.9,32.6,69.2,18.6C994.6,905.7,1000.8,899.5,1005,892.4z"/>
		
			<radialGradient id="SVGID_6_" cx="600.1937" cy="591.3004" r="459.4773" gradientTransform="matrix(1 0 0 -1 0 1200)" gradientUnits="userSpaceOnUse">
			<stop  offset="0" style="stop-color:#FF6D00"/>
			<stop  offset="2.590000e-02" style="stop-color:#FF7800"/>
			<stop  offset="0.1452" style="stop-color:#FFA800"/>
			<stop  offset="0.2586" style="stop-color:#FFCD00"/>
			<stop  offset="0.3634" style="stop-color:#FFE800"/>
			<stop  offset="0.4564" style="stop-color:#FFF800"/>
			<stop  offset="0.5279" style="stop-color:#FFFE00"/>
			<stop  offset="0.5786" style="stop-color:#FFF600"/>
			<stop  offset="0.6577" style="stop-color:#FFE000"/>
			<stop  offset="0.7552" style="stop-color:#FFBC00"/>
			<stop  offset="0.8663" style="stop-color:#FF8A00"/>
			<stop  offset="0.9246" style="stop-color:#FF6D00"/>
		</radialGradient>
		<path class="st6" d="M911.9,751.4H773l131.3,75.8c5.7-8.4,13.4-15.7,22.8-21.1c5.2-3,10.7-5.3,16.2-6.8L911.9,751.4z M463.6,747.1
			l-151.7,90v0c3.9,8.8,6.1,18.6,6.1,28.9c0,6.4-0.9,12.7-2.5,18.6l69.6-5.1c14.3,14.3,30,27.1,46.9,38.3l39.9,109.5L572,968
			c8.9,0.9,17.8,1.4,26.9,1.5V824.7C541.8,823.3,491.9,792.6,463.6,747.1z M899.6,835.1l-139.9-80.8c-3.3-1.9-7-2.9-10.8-2.9l0,0
			c-5.4,0-10.4,2.5-13.6,6.9c-29,39.2-75.1,65-127.3,66.5v144.8c10.3-0.2,20.4-0.8,30.4-2l99.9,59.3l40.9-112.3v0
			c15.3-10.6,29.6-22.6,42.7-35.8l72.5,5.4C890.1,867.5,892.1,850,899.6,835.1z M567.1,310.7c-5.4-3.1-10.2-6.8-14.4-11l-29.3,62
			c-18.5,4.9-36.3,11.5-53.2,19.6l-116.2-20.5l-0.5,117.4c-5.3,7.2-10.2,14.7-14.9,22.4L464,573c28.4-45.1,78-75.5,134.9-76.9V320.2
			C588.1,319.7,577.2,316.6,567.1,310.7z M855.5,481.6l-2.1-120.3l-113.7,21.6h0c-18.2-8.9-37.3-16.2-57.3-21.4h0l-29.5-62.1
			c-12.1,12.3-28.1,19.4-44.8,20.7v176c56.1,1.6,105.1,31.3,133.5,75.5l124.6-73.9C862.8,492.2,859.2,486.9,855.5,481.6z"/>
		
			<radialGradient id="SVGID_7_" cx="600.1937" cy="591.3004" r="459.4773" gradientTransform="matrix(1 0 0 -1 0 1200)" gradientUnits="userSpaceOnUse">
			<stop  offset="0" style="stop-color:#FF6D00"/>
			<stop  offset="2.590000e-02" style="stop-color:#FF7800"/>
			<stop  offset="0.1452" style="stop-color:#FFA800"/>
			<stop  offset="0.2586" style="stop-color:#FFCD00"/>
			<stop  offset="0.3634" style="stop-color:#FFE800"/>
			<stop  offset="0.4564" style="stop-color:#FFF800"/>
			<stop  offset="0.5279" style="stop-color:#FFFE00"/>
			<stop  offset="0.5786" style="stop-color:#FFF600"/>
			<stop  offset="0.6577" style="stop-color:#FFE000"/>
			<stop  offset="0.7552" style="stop-color:#FFBC00"/>
			<stop  offset="0.8663" style="stop-color:#FF8A00"/>
			<stop  offset="0.9246" style="stop-color:#FF6D00"/>
		</radialGradient>
		<path class="st7" d="M987.1,591.5l-75.3,88.3c-0.6,10.1-1.7,20.1-3.3,29.9h-462c3.2,10.3,7.5,20.2,12.6,29.5L307.7,829
			c-9.7-16-25.6-27.8-44.3-32.3l40.8-58.2c-5.1-19.5-8.3-39.8-9.5-60.6v0l-74.8-87.8l101.1-57.8l0,0c3.8-8.4,8.6-16,13.1-23.9
			l125.4,72.4c-5.1,9.2-9.4,19-12.6,29.2h313c-3.5-10.8-8-21-13.5-30.7l124.5-73.9c5.4,9.2,10.3,18.8,14.6,28.6l0.5-0.4L987.1,591.5
			z"/>
		
			<radialGradient id="SVGID_8_" cx="600.1937" cy="591.3004" r="459.4773" gradientTransform="matrix(1 0 0 -1 0 1200)" gradientUnits="userSpaceOnUse">
			<stop  offset="0" style="stop-color:#FF6D00"/>
			<stop  offset="2.590000e-02" style="stop-color:#FF7800"/>
			<stop  offset="0.1452" style="stop-color:#FFA800"/>
			<stop  offset="0.2586" style="stop-color:#FFCD00"/>
			<stop  offset="0.3634" style="stop-color:#FFE800"/>
			<stop  offset="0.4564" style="stop-color:#FFF800"/>
			<stop  offset="0.5279" style="stop-color:#FFFE00"/>
			<stop  offset="0.5786" style="stop-color:#FFF600"/>
			<stop  offset="0.6577" style="stop-color:#FFE000"/>
			<stop  offset="0.7552" style="stop-color:#FFBC00"/>
			<stop  offset="0.8663" style="stop-color:#FF8A00"/>
			<stop  offset="0.9246" style="stop-color:#FF6D00"/>
		</radialGradient>
		<path class="st8" d="M251.3,813.9c-1.5-0.1-3-0.2-4.5-0.2c-28.9,0-52.3,23.4-52.3,52.3c0,28.9,23.4,52.3,52.3,52.3
			c21.8,0,40.4-13.3,48.3-32.2c2.6-6.2,4-13,4-20.1C299.2,838.6,278.1,816.2,251.3,813.9z"/>
	</g>
	<line class="st9" x1="608.1" y1="709.7" x2="599" y2="709.7"/>
</g>
</svg>
